<svg width="815" height="342" xmlns="http://www.w3.org/2000/svg" xmlns:xlink="http://www.w3.org/1999/xlink" overflow="hidden"><defs><clipPath id="clip0"><rect x="425" y="679" width="815" height="342"/></clipPath></defs><g clip-path="url(#clip0)" transform="translate(-425 -679)"><path d="M597.041 756.99C595.909 756.991 594.992 757.93 594.991 759.088L594.991 842.892C594.992 844.05 595.909 844.988 597.041 844.99L610.941 844.99C612.073 844.988 612.99 844.05 612.991 842.892L612.991 759.088C612.99 757.93 612.073 756.991 610.941 756.99Z" fill="#3F3D56" fill-rule="evenodd"/><path d="M715.041 756.99C713.91 756.991 712.993 757.93 712.991 759.088L712.991 842.892C712.993 844.05 713.91 844.988 715.041 844.99L728.942 844.99C730.073 844.988 730.99 844.05 730.991 842.892L730.991 759.088C730.99 757.93 730.073 756.991 728.942 756.99Z" fill="#3F3D56" fill-rule="evenodd"/><path d="M781 690.514 673 682 759.162 697 779.809 693.351 781 690.514Z" fill="#3F3D56" fill-rule="evenodd"/><path d="M759.96 695.582 780.798 691.956 781.003 691.476 782 691.553 780.798 694.374 759.96 698 673 682 698.77 685.092 759.96 695.582Z" fill="#6C63FF" fill-rule="evenodd"/><path d="M535 690.514 426 682 512.96 697 533.798 693.351 535 690.514Z" fill="#3F3D56" fill-rule="evenodd"/><path d="M511.96 695.582 532.797 691.956 533.002 691.476 534 691.553 532.797 694.374 511.96 698 425 682 450.77 685.092 511.96 695.582Z" fill="#6C63FF" fill-rule="evenodd"/><path d="M799.991 733.903 790.777 734.305 706.369 770.058 701.537 774.12 686.223 786.99 638.151 786.99 623.674 774.12 618.17 769.226 537.202 734.708 529.991 733.903 554.027 722.24 554.155 722.24C559.603 717.048 606.785 712.99 664.19 712.99 721.595 712.99 768.777 717.048 774.225 722.24L774.754 722.24Z" fill="#3F3D56" fill-rule="evenodd"/><path d="M553.132 722.773C553.303 722.3 553.391 721.802 553.391 721.3L553.391 702.569C553.391 700.119 551.376 698.133 548.891 698.133L547.063 698.133C551.261 693.955 551.23 687.213 546.993 683.075 542.756 678.935 535.918 678.966 531.719 683.143 527.548 687.294 527.548 693.982 531.719 698.133L529.892 698.133C527.406 698.133 525.391 700.119 525.391 702.569L525.391 721.3C525.391 722.067 525.593 722.821 525.979 723.487 524.62 723.722 523.262 723.976 521.903 724.271 520.199 724.647 518.988 726.14 518.991 727.862L518.991 732.312C518.991 734.344 520.661 735.99 522.722 735.99L564.991 735.99 564.991 724.948C561.088 723.98 557.128 723.253 553.132 722.773Z" fill="#3F3D56" fill-rule="evenodd"/><path d="M804.079 724.271C802.721 723.976 801.362 723.722 800.004 723.487 800.389 722.821 800.591 722.067 800.591 721.3L800.591 702.569C800.591 700.119 798.576 698.133 796.09 698.133L794.263 698.133C798.461 693.955 798.43 687.213 794.193 683.075 789.956 678.935 783.118 678.966 778.919 683.143 774.748 687.294 774.748 693.982 778.919 698.133L777.092 698.133C774.606 698.133 772.591 700.119 772.591 702.569L772.591 721.3C772.592 721.802 772.68 722.3 772.85 722.773 768.855 723.253 764.894 723.98 760.991 724.948L760.991 735.99 803.26 735.99C805.321 735.99 806.991 734.344 806.991 732.312L806.991 727.862C806.995 726.14 805.783 724.647 804.079 724.271Z" fill="#3F3D56" fill-rule="evenodd"/><path d="M791 690.514 900 682 813.04 697 792.202 693.351 791 690.514Z" fill="#3F3D56" fill-rule="evenodd"/><path d="M670.303 782.99 653.68 782.99C651.091 782.99 648.991 785.134 648.991 787.778L648.991 791.478C648.992 793.468 650.2 795.25 652.022 795.953 651.335 796.795 650.96 797.858 650.961 798.954L650.961 800.015C650.961 801.551 651.697 802.99 652.93 803.867L652.93 817.99 671.052 817.99 671.052 803.867C672.286 802.99 673.022 801.551 673.022 800.015L673.022 798.954C673.023 797.858 672.647 796.795 671.96 795.953 673.783 795.25 674.99 793.468 674.991 791.478L674.991 787.778C674.991 785.134 672.892 782.99 670.303 782.99Z" fill="#3F3D56" fill-rule="evenodd"/><path d="M644.828 815.99C643.262 815.992 641.993 817.243 641.991 818.787L641.991 841.193C641.993 842.737 643.262 843.989 644.828 843.99L679.155 843.99C680.721 843.989 681.99 842.737 681.991 841.193L681.991 818.787C681.989 817.243 680.721 815.992 679.155 815.99Z" fill="#6C63FF" fill-rule="evenodd"/><path d="M700.991 774.323 685.846 786.99 638.308 786.99 623.991 774.323 638.229 774.323 638.851 771.224C639.227 769.345 640.878 767.991 642.797 767.99L682.546 767.99C684.465 767.991 686.116 769.345 686.492 771.224L687.114 774.323Z" fill="#6C63FF" fill-rule="evenodd"/><path d="M673 830C673 836.075 668.075 841 662 841 655.925 841 651 836.075 651 830 651 823.925 655.925 819 662 819 668.075 819 673 823.925 673 830Z" fill="#3F3D56" fill-rule="evenodd"/><path d="M669 830.5C669 834.09 666.09 837 662.5 837 658.91 837 656 834.09 656 830.5 656 826.91 658.91 824 662.5 824 666.09 824 669 826.91 669 830.5Z" fill="#E6E6E6" fill-rule="evenodd"/><path d="M666.346 824.99C668.583 827.921 668.019 832.109 665.088 834.345 662.697 836.17 659.382 836.17 656.991 834.345 659.219 837.285 663.407 837.861 666.346 835.633 669.286 833.405 669.862 829.216 667.634 826.277 667.266 825.791 666.832 825.358 666.346 824.99Z" fill="#FFFFFF" fill-rule="evenodd"/><path d="M519 729 807 729 807 731 519 731Z" fill="#E6E6E6" fill-rule="evenodd"/><path d="M814.04 695.582 793.202 691.956 792.997 691.476 792 691.553 793.202 694.374 814.04 698 901 682 875.23 685.092 814.04 695.582Z" fill="#6C63FF" fill-rule="evenodd"/><path d="M545 690.514 653 682 566.838 697 546.191 693.351 545 690.514Z" fill="#3F3D56" fill-rule="evenodd"/><path d="M568.04 695.582 547.202 691.956 546.997 691.476 546 691.553 547.202 694.374 568.04 698 655 682 629.229 685.092 568.04 695.582Z" fill="#6C63FF" fill-rule="evenodd"/><path d="M647 771 679 771 679 777 647 777Z" fill="#E6E6E6" fill-rule="evenodd"/><path d="M1012.99 1011.98C1012.99 1011.98 1014.01 991.829 1034.99 994.171" fill="#F0F0F0" fill-rule="evenodd"/><path d="M1018 982.5C1018 988.299 1013.3 993 1007.5 993 1001.7 993 997 988.299 997 982.5 997 976.701 1001.7 972 1007.5 972 1013.3 972 1018 976.701 1018 982.5Z" fill="#F0F0F0" fill-rule="evenodd"/><path d="M1006 1000 1009 1000 1009 1020 1006 1020Z" fill="#F0F0F0" fill-rule="evenodd"/><path d="M1191 898.5C1191 944.064 1154.06 981 1108.5 981 1062.94 981 1026 944.064 1026 898.5 1026 852.937 1062.94 816 1108.5 816 1154.06 816 1191 852.937 1191 898.5Z" fill="#3F3D56" fill-rule="evenodd"/><path d="M1056.57 904.981C1064.38 895.687 1078.28 894.446 1087.62 902.21 1088.63 903.049 1089.56 903.976 1090.41 904.981 1100.19 895.687 1100.55 880.26 1091.21 870.524 1081.87 860.788 1066.36 860.43 1056.57 869.724 1046.78 879.019 1046.42 894.446 1055.77 904.181 1056.03 904.454 1056.3 904.721 1056.57 904.981Z" fill="#FFFFFF" fill-rule="evenodd"/><path d="M1121.57 904.981C1129.38 895.687 1143.28 894.446 1152.62 902.21 1153.63 903.049 1154.56 903.976 1155.41 904.981 1165.19 895.687 1165.55 880.26 1156.21 870.524 1146.87 860.788 1131.36 860.43 1121.57 869.724 1111.78 879.019 1111.42 894.446 1120.77 904.181 1121.03 904.454 1121.3 904.721 1121.57 904.981Z" fill="#FFFFFF" fill-rule="evenodd"/><path d="M1073 879.5C1073 884.194 1069.42 888 1065 888 1060.58 888 1057 884.194 1057 879.5 1057 874.806 1060.58 871 1065 871 1069.42 871 1073 874.806 1073 879.5Z" fill="#3F3D56" fill-rule="evenodd"/><path d="M1139 879.5C1139 884.194 1135.19 888 1130.5 888 1125.81 888 1122 884.194 1122 879.5 1122 874.806 1125.81 871 1130.5 871 1135.19 871 1139 874.806 1139 879.5Z" fill="#3F3D56" fill-rule="evenodd"/><path d="M1059 919C1059 924.523 1054.75 929 1049.5 929 1044.25 929 1040 924.523 1040 919 1040 913.477 1044.25 909 1049.5 909 1054.75 909 1059 913.477 1059 919Z" fill="#6C63FF" fill-rule="evenodd"/><path d="M1170 919C1170 924.523 1165.75 929 1160.5 929 1155.25 929 1151 924.523 1151 919 1151 913.477 1155.25 909 1160.5 909 1165.75 909 1170 913.477 1170 919Z" fill="#6C63FF" fill-rule="evenodd"/><path d="M1105.2 900 1098 931 1110 919.077 1105.2 900Z" fill="#6C63FF" fill-rule="evenodd"/><path d="M1142.1 1020 1134.01 1013.14 1134.2 1020 1131.69 1020 1131.49 1012.75 1120.57 1020 1116 1020 1131.41 1009.77 1130.81 988.292 1130.36 972.07 1132.87 972 1133.32 988.292 1133.92 1009.75 1146 1020 1142.1 1020Z" fill="#3F3D56" fill-rule="evenodd"/><path d="M1103.09 1020 1095.01 1013.14 1095.2 1020 1092.69 1020 1092.49 1012.75 1081.57 1020 1077 1020 1092.4 1009.77 1091.81 988.292 1091.36 972.07 1093.87 972 1094.32 988.292 1094.91 1009.75 1107 1020 1103.09 1020Z" fill="#3F3D56" fill-rule="evenodd"/><path d="M1109.7 810.41C1107.44 810.41 1105.44 812.118 1104.1 814.742 1102.92 810.797 1100.45 808.053 1097.56 808.053 1097.36 808.072 1097.17 808.104 1096.98 808.148 1095.87 803.936 1093.28 800.982 1090.27 800.982 1086.25 800.982 1082.99 806.258 1082.99 812.768 1082.99 819.276 1086.25 824.553 1090.27 824.553 1090.47 824.534 1090.67 824.502 1090.86 824.458 1091.97 828.671 1094.55 831.625 1097.56 831.625 1099.83 831.625 1101.82 829.917 1103.16 827.292 1104.34 831.238 1106.81 833.982 1109.7 833.982 1113.73 833.982 1116.99 828.705 1116.99 822.196 1116.99 815.687 1113.73 810.41 1109.7 810.41Z" fill="#3F3D56" fill-rule="evenodd"/><path d="M1031.28 900.878 985.968 893.524C983.685 893.153 981.36 892.782 979.069 893.104 976.778 893.427 974.485 894.556 973.317 896.554 971.708 899.308 972.634 902.844 975.386 904.454 976.603 905.167 978.038 905.409 979.421 905.134 976.948 905.054 974.348 905.001 972.153 906.145 969.958 907.288 968.405 910.067 969.475 912.3 969.796 912.916 970.23 913.466 970.755 913.921 974.126 916.945 978.934 917.761 983.113 916.018 981.444 918.412 978.134 918.768 975.271 919.322 972.408 919.876 969.097 921.497 968.991 924.414 968.871 927.69 972.768 929.432 975.977 930.099 993.11 933.626 1010.89 932.176 1027.23 925.919 1029.07 925.287 1030.8 924.399 1032.39 923.282 1037.51 919.395 1038.5 912.094 1034.62 906.976 1032.91 904.728 1030.45 903.176 1027.68 902.611" fill="#3F3D56" fill-rule="evenodd"/><path d="M1226.62 937.932C1219.13 922.307 1207.27 909.122 1192.45 899.932 1190.84 898.858 1189.08 898.012 1187.23 897.421 1181.05 895.688 1174.61 899.232 1172.86 905.339 1172.08 908.021 1172.33 910.888 1173.54 913.406L1169.99 911.594C1177.11 924.979 1184.24 938.364 1191.37 951.75 1192.44 953.773 1193.55 955.83 1195.18 957.448 1196.82 959.066 1199.1 960.207 1201.4 959.944 1204.55 959.594 1206.82 956.788 1206.46 953.676 1206.39 953.036 1206.21 952.414 1205.93 951.834 1206.93 953.226 1208.24 954.368 1209.77 955.17 1212 956.225 1215.16 955.803 1216.3 953.633 1216.6 953.014 1216.78 952.344 1216.82 951.659 1217.21 947.202 1214.97 942.921 1211.07 940.654 1213.99 940.55 1216.26 942.954 1218.43 944.887 1220.59 946.82 1223.88 948.472 1226.28 946.825 1228.97 944.975 1228.01 940.863 1226.62 937.932Z" fill="#3F3D56" fill-rule="evenodd"/><path d="M1239.32 1020.99 985.654 1020.99C985.286 1020.99 984.988 1020.76 984.988 1020.49 984.988 1020.21 985.286 1019.99 985.654 1019.99L1239.32 1019.99C1239.69 1019.99 1239.99 1020.21 1239.99 1020.49 1239.99 1020.76 1239.69 1020.99 1239.32 1020.99Z" fill="#CACACA" fill-rule="evenodd"/></g></svg>