<svg width="2059" height="988" xmlns="http://www.w3.org/2000/svg" xmlns:xlink="http://www.w3.org/1999/xlink" overflow="hidden"><defs><clipPath id="clip0"><rect x="411" y="683" width="2059" height="988"/></clipPath></defs><g clip-path="url(#clip0)" transform="translate(-411 -683)"><path d="M817.875 865.977C815.172 865.979 812.982 868.187 812.979 870.911L812.979 1068.04C812.982 1070.77 815.172 1072.97 817.875 1072.98L851.082 1072.98C853.786 1072.97 855.977 1070.77 855.979 1068.04L855.979 870.911C855.977 868.187 853.786 865.979 851.082 865.977Z" fill="#3F3D56" fill-rule="evenodd"/><path d="M1095.88 865.977C1093.17 865.979 1090.98 868.187 1090.98 870.911L1090.98 1068.04C1090.98 1070.77 1093.17 1072.97 1095.88 1072.98L1129.08 1072.98C1131.79 1072.97 1133.98 1070.77 1133.98 1068.04L1133.98 870.911C1133.98 868.187 1131.79 865.979 1129.08 865.977Z" fill="#3F3D56" fill-rule="evenodd"/><path d="M1252 709.865 996 690 1200.24 725 1249.18 716.486 1252 709.865Z" fill="#3F3D56" fill-rule="evenodd"/><path d="M1202.03 721.409 1251.17 713.022 1251.65 711.912 1254 712.091 1251.17 718.614 1202.03 727 997 690 1057.76 697.15 1202.03 721.409Z" fill="#6C63FF" fill-rule="evenodd"/><path d="M671 709.865 414 690 619.033 725 668.166 716.486 671 709.865Z" fill="#3F3D56" fill-rule="evenodd"/><path d="M616.033 721.409 665.165 713.022 665.648 711.912 668 712.091 665.165 718.614 616.033 727 411 690 471.761 697.15 616.033 721.409Z" fill="#6C63FF" fill-rule="evenodd"/><path d="M1295.98 812.151 1274.28 813.096 1075.45 897.165 1064.07 906.716 1027.99 936.977 914.756 936.977 880.654 906.716 867.689 895.208 676.964 814.043 659.979 812.151 716.596 784.727 716.898 784.727C729.731 772.519 840.871 762.977 976.092 762.977 1111.31 762.977 1222.45 772.519 1235.29 784.727L1236.53 784.727Z" fill="#3F3D56" fill-rule="evenodd"/><path d="M714.878 786.349C715.282 785.218 715.49 784.026 715.491 782.825L715.491 738.005C715.491 732.142 710.716 727.389 704.828 727.389L700.497 727.389C710.444 717.393 710.37 701.261 700.33 691.357 690.29 681.452 674.088 681.527 664.139 691.522 654.255 701.453 654.255 717.458 664.139 727.389L659.809 727.389C653.919 727.389 649.144 732.142 649.144 738.005L649.144 782.825C649.143 784.66 649.623 786.464 650.537 788.058 647.318 788.62 644.098 789.229 640.879 789.935 636.84 790.834 633.971 794.407 633.979 798.527L633.979 809.176C633.979 814.037 637.936 817.977 642.819 817.977L742.979 817.977 742.979 791.555C733.731 789.237 724.345 787.498 714.878 786.349Z" fill="#3F3D56" fill-rule="evenodd"/><path d="M1305.08 789.935C1301.86 789.229 1298.64 788.62 1295.42 788.058 1296.33 786.464 1296.81 784.66 1296.81 782.825L1296.81 738.005C1296.81 732.142 1292.04 727.389 1286.15 727.389L1281.82 727.389C1291.77 717.393 1291.69 701.261 1281.65 691.357 1271.61 681.452 1255.41 681.527 1245.46 691.522 1235.58 701.453 1235.58 717.458 1245.46 727.389L1241.13 727.389C1235.24 727.389 1230.47 732.142 1230.47 738.005L1230.47 782.825C1230.47 784.026 1230.68 785.218 1231.08 786.349 1221.61 787.498 1212.23 789.237 1202.98 791.555L1202.98 817.977 1303.14 817.977C1308.02 817.977 1311.98 814.037 1311.98 809.176L1311.98 798.527C1311.99 794.407 1309.12 790.834 1305.08 789.935Z" fill="#3F3D56" fill-rule="evenodd"/><path d="M1275 709.865 1532 690 1326.97 725 1277.83 716.486 1275 709.865Z" fill="#3F3D56" fill-rule="evenodd"/><path d="M990.799 927.977 951.16 927.977C944.985 927.977 939.979 933.06 939.979 939.331L939.979 948.105C939.982 952.825 942.861 957.049 947.208 958.716 945.569 960.715 944.673 963.234 944.676 965.833L944.676 968.35C944.676 971.992 946.43 975.404 949.373 977.484L949.373 1010.98 992.585 1010.98 992.585 977.484C995.528 975.404 997.283 971.992 997.283 968.35L997.283 965.833C997.285 963.234 996.39 960.715 994.751 958.716 999.098 957.049 1001.98 952.825 1001.98 948.105L1001.98 939.331C1001.98 933.06 996.974 927.977 990.799 927.977Z" fill="#3F3D56" fill-rule="evenodd"/><path d="M930.645 1005.98C926.965 1005.98 923.983 1008.97 923.979 1012.67L923.979 1066.28C923.983 1069.98 926.965 1072.97 930.645 1072.98L1011.31 1072.98C1014.99 1072.97 1017.98 1069.98 1017.98 1066.28L1017.98 1012.67C1017.97 1008.97 1014.99 1005.98 1011.31 1005.98Z" fill="#6C63FF" fill-rule="evenodd"/><path d="M1063.98 906.977 1027.79 936.977 914.191 936.977 879.979 906.977 914.002 906.977 915.488 899.636C916.387 895.185 920.333 891.979 924.917 891.977L1019.9 891.977C1024.49 891.979 1028.43 895.185 1029.33 899.636L1030.82 906.977Z" fill="#6C63FF" fill-rule="evenodd"/><path d="M997 1039.5C997 1054.14 985.359 1066 971 1066 956.641 1066 945 1054.14 945 1039.5 945 1024.86 956.641 1013 971 1013 985.359 1013 997 1024.86 997 1039.5Z" fill="#3F3D56" fill-rule="evenodd"/><path d="M986 1039C986 1047.28 979.284 1054 971 1054 962.716 1054 956 1047.28 956 1039 956 1030.72 962.716 1024 971 1024 979.284 1024 986 1030.72 986 1039Z" fill="#E6E6E6" fill-rule="evenodd"/><path d="M980.029 1026.98C985.061 1033.57 983.793 1043 977.199 1048.03 971.82 1052.13 964.359 1052.13 958.979 1048.03 963.993 1054.64 973.417 1055.94 980.029 1050.92 986.643 1045.91 987.94 1036.49 982.926 1029.87 982.098 1028.78 981.123 1027.81 980.029 1026.98Z" fill="#FFFFFF" fill-rule="evenodd"/><path d="M635 801 1312 801 1312 806 635 806Z" fill="#E6E6E6" fill-rule="evenodd"/><path d="M1328.76 721.409 1279.82 713.022 1279.34 711.912 1277 712.091 1279.82 718.614 1328.76 727 1533 690 1472.48 697.15 1328.76 721.409Z" fill="#6C63FF" fill-rule="evenodd"/><path d="M694 709.865 950 690 745.765 725 696.824 716.486 694 709.865Z" fill="#3F3D56" fill-rule="evenodd"/><path d="M747.967 721.409 698.834 713.022 698.352 711.912 696 712.091 698.834 718.614 747.967 727 953 690 892.239 697.15 747.967 721.409Z" fill="#6C63FF" fill-rule="evenodd"/><path d="M935 900 1010 900 1010 915 935 915Z" fill="#E6E6E6" fill-rule="evenodd"/><path d="M1935.97 1650.96C1935.97 1650.96 1938.3 1601.69 1985.97 1607.42" fill="#F0F0F0" fill-rule="evenodd"/><path d="M1946 1580C1946 1593.25 1935.25 1604 1922 1604 1908.75 1604 1898 1593.25 1898 1580 1898 1566.75 1908.75 1556 1922 1556 1935.25 1556 1946 1566.75 1946 1580Z" fill="#F0F0F0" fill-rule="evenodd"/><path d="M1918 1620 1925 1620 1925 1668 1918 1668Z" fill="#F0F0F0" fill-rule="evenodd"/><path d="M2354 1382C2354 1489.14 2267.37 1576 2160.5 1576 2053.63 1576 1967 1489.14 1967 1382 1967 1274.86 2053.63 1188 2160.5 1188 2267.37 1188 2354 1274.86 2354 1382Z" fill="#3F3D56" fill-rule="evenodd"/><path d="M2038.61 1397.96C2056.77 1376.05 2089.11 1373.12 2110.85 1391.42 2113.2 1393.4 2115.37 1395.59 2117.33 1397.96 2140.1 1376.05 2140.94 1339.68 2119.2 1316.73 2097.46 1293.79 2061.38 1292.94 2038.61 1314.85 2015.84 1336.76 2015.01 1373.12 2036.74 1396.07 2037.35 1396.71 2037.97 1397.34 2038.61 1397.96Z" fill="#FFFFFF" fill-rule="evenodd"/><path d="M2191.61 1397.96C2209.77 1376.05 2242.11 1373.12 2263.85 1391.42 2266.2 1393.4 2268.37 1395.59 2270.33 1397.96 2293.1 1376.05 2293.94 1339.68 2272.2 1316.73 2250.46 1293.79 2214.38 1292.94 2191.61 1314.85 2168.84 1336.76 2168.01 1373.12 2189.74 1396.07 2190.35 1396.71 2190.97 1397.34 2191.61 1397.96Z" fill="#FFFFFF" fill-rule="evenodd"/><path d="M2078 1337C2078 1348.05 2069.27 1357 2058.5 1357 2047.73 1357 2039 1348.05 2039 1337 2039 1325.95 2047.73 1317 2058.5 1317 2069.27 1317 2078 1325.95 2078 1337Z" fill="#3F3D56" fill-rule="evenodd"/><path d="M2232 1337C2232 1348.05 2223.05 1357 2212 1357 2200.95 1357 2192 1348.05 2192 1337 2192 1325.95 2200.95 1317 2212 1317 2223.05 1317 2232 1325.95 2232 1337Z" fill="#3F3D56" fill-rule="evenodd"/><path d="M2044 1430.5C2044 1442.93 2033.7 1453 2021 1453 2008.3 1453 1998 1442.93 1998 1430.5 1998 1418.07 2008.3 1408 2021 1408 2033.7 1408 2044 1418.07 2044 1430.5Z" fill="#6C63FF" fill-rule="evenodd"/><path d="M2305 1430.5C2305 1442.93 2294.93 1453 2282.5 1453 2270.07 1453 2260 1442.93 2260 1430.5 2260 1418.07 2270.07 1408 2282.5 1408 2294.93 1408 2305 1418.07 2305 1430.5Z" fill="#6C63FF" fill-rule="evenodd"/><path d="M2151.8 1385 2135 1459 2163 1430.54 2151.8 1385Z" fill="#6C63FF" fill-rule="evenodd"/><path d="M2239.63 1670 2220.22 1653.72 2220.68 1670 2214.65 1670 2214.17 1652.78 2187.97 1670 2177 1670 2213.97 1645.71 2212.54 1594.69 2211.47 1556.17 2217.48 1556 2218.57 1594.69 2220 1645.66 2249 1670 2239.63 1670Z" fill="#3F3D56" fill-rule="evenodd"/><path d="M2148.63 1670 2129.22 1653.72 2129.67 1670 2123.66 1670 2123.18 1652.78 2096.97 1670 2086 1670 2122.97 1645.71 2121.53 1594.69 2120.46 1556.17 2126.49 1556 2127.58 1594.69 2128.99 1645.66 2158 1670 2148.63 1670Z" fill="#3F3D56" fill-rule="evenodd"/><path d="M2162.83 1173.81C2157.5 1173.81 2152.79 1177.95 2149.65 1184.31 2146.88 1174.75 2141.06 1168.1 2134.26 1168.1 2133.8 1168.14 2133.34 1168.22 2132.89 1168.33 2130.27 1158.12 2124.2 1150.96 2117.11 1150.96 2107.65 1150.96 2099.97 1163.75 2099.97 1179.53 2099.97 1195.31 2107.65 1208.1 2117.11 1208.1 2117.58 1208.05 2118.04 1207.97 2118.49 1207.87 2121.1 1218.08 2127.18 1225.24 2134.26 1225.24 2139.59 1225.24 2144.29 1221.1 2147.44 1214.74 2150.21 1224.3 2156.03 1230.96 2162.83 1230.96 2172.3 1230.96 2179.97 1218.16 2179.97 1202.38 2179.97 1186.6 2172.3 1173.81 2162.83 1173.81Z" fill="#3F3D56" fill-rule="evenodd"/><path d="M1977.55 1388.38 1870.93 1371.22C1865.55 1370.36 1860.08 1369.49 1854.69 1370.24 1849.3 1371 1843.91 1373.63 1841.16 1378.29 1837.37 1384.72 1839.55 1392.97 1846.03 1396.73 1848.89 1398.39 1852.27 1398.95 1855.52 1398.31 1849.7 1398.13 1843.58 1398 1838.42 1400.67 1833.26 1403.34 1829.6 1409.82 1832.12 1415.03 1832.87 1416.47 1833.89 1417.75 1835.13 1418.82 1843.06 1425.87 1854.37 1427.77 1864.21 1423.71 1860.28 1429.29 1852.49 1430.13 1845.76 1431.42 1839.02 1432.71 1831.23 1436.49 1830.98 1443.3 1830.7 1450.94 1839.87 1455.01 1847.42 1456.56 1887.73 1464.79 1929.57 1461.41 1968.01 1446.81 1972.33 1445.34 1976.42 1443.26 1980.15 1440.66 1992.19 1431.59 1994.54 1414.55 1985.4 1402.61 1981.39 1397.36 1975.59 1393.74 1969.08 1392.43" fill="#3F3D56" fill-rule="evenodd"/><path d="M2437.76 1475.46C2420.21 1438.26 2392.4 1406.86 2357.63 1384.98 2353.86 1382.42 2349.74 1380.41 2345.41 1379 2330.9 1374.88 2315.81 1383.32 2311.7 1397.85 2309.89 1404.24 2310.46 1411.07 2313.29 1417.06L2304.97 1412.75C2321.68 1444.62 2338.39 1476.49 2355.1 1508.36 2357.63 1513.17 2360.21 1518.07 2364.05 1521.92 2367.88 1525.78 2373.23 1528.49 2378.62 1527.87 2386.01 1527.03 2391.33 1520.35 2390.5 1512.94 2390.33 1511.42 2389.91 1509.94 2389.24 1508.56 2391.58 1511.87 2394.67 1514.59 2398.25 1516.5 2403.48 1519.01 2410.89 1518.01 2413.56 1512.84 2414.26 1511.37 2414.68 1509.77 2414.8 1508.14 2415.71 1497.53 2410.46 1487.33 2401.3 1481.94 2408.14 1481.69 2413.47 1487.41 2418.55 1492.02 2423.63 1496.62 2431.34 1500.55 2436.96 1496.63 2443.27 1492.23 2441.03 1482.44 2437.76 1475.46Z" fill="#3F3D56" fill-rule="evenodd"/><path d="M2468.4 1670.96 1869.54 1670.96C1868.67 1670.96 1867.97 1670.29 1867.97 1669.46 1867.97 1668.63 1868.67 1667.96 1869.54 1667.96L2468.4 1667.96C2469.26 1667.96 2469.97 1668.63 2469.97 1669.46 2469.97 1670.29 2469.26 1670.96 2468.4 1670.96Z" fill="#CACACA" fill-rule="evenodd"/></g></svg>