<svg width="5534" height="1319" xmlns="http://www.w3.org/2000/svg" xmlns:xlink="http://www.w3.org/1999/xlink" overflow="hidden"><defs><clipPath id="clip0"><rect x="-958" y="632" width="5534" height="1319"/></clipPath></defs><g clip-path="url(#clip0)" transform="translate(958 -632)"><path d="M-552.012 843.977C-554.777 843.979-557.019 846.187-557.021 848.911L-557.021 1046.04C-557.019 1048.77-554.777 1050.97-552.012 1050.98L-518.032 1050.98C-515.265 1050.97-513.024 1048.77-513.021 1046.04L-513.021 848.911C-513.024 846.187-515.265 843.979-518.032 843.977Z" fill="#3F3D56" fill-rule="evenodd"/><path d="M-273.124 843.977C-275.827 843.979-278.017 846.187-278.021 848.911L-278.021 1046.04C-278.017 1048.77-275.827 1050.97-273.124 1050.98L-239.918 1050.98C-237.215 1050.97-235.025 1048.77-235.021 1046.04L-235.021 848.911C-235.025 846.187-237.215 843.979-239.918 843.977Z" fill="#3F3D56" fill-rule="evenodd"/><path d="M-117 686.865-373 667-168.765 702-119.823 693.486-117 686.865Z" fill="#3F3D56" fill-rule="evenodd"/><path d="M-166.967 699.258-117.834 690.645-117.352 689.504-115 689.688-117.834 696.387-166.967 705-372 667-311.239 674.343-166.967 699.258Z" fill="#6C63FF" fill-rule="evenodd"/><path d="M-698 686.865-955 667-749.967 702-700.834 693.486-698 686.865Z" fill="#3F3D56" fill-rule="evenodd"/><path d="M-752.967 699.258-703.835 690.645-703.352 689.504-701 689.688-703.835 696.387-752.967 705-958 667-897.239 674.343-752.967 699.258Z" fill="#6C63FF" fill-rule="evenodd"/><path d="M-73.0207 790.151-94.7239 791.096-293.554 875.165-304.934 884.716-341.008 914.977-454.244 914.977-488.346 884.716-501.312 873.208-692.036 792.043-709.021 790.151-652.404 762.727-652.102 762.727C-639.269 750.519-528.129 740.977-392.908 740.977-257.688 740.977-146.548 750.519-133.714 762.727L-132.468 762.727Z" fill="#3F3D56" fill-rule="evenodd"/><path d="M-654.122 764.349C-653.718 763.218-653.51 762.026-653.508 760.825L-653.508 716.005C-653.508 710.142-658.283 705.389-664.172 705.389L-668.503 705.389C-658.555 695.393-658.63 679.261-668.67 669.357-678.71 659.452-694.912 659.527-704.861 669.522-714.745 679.453-714.745 695.458-704.861 705.389L-709.191 705.389C-715.081 705.389-719.856 710.142-719.856 716.005L-719.856 760.825C-719.857 762.66-719.377 764.464-718.463 766.058-721.682 766.62-724.901 767.229-728.12 767.935-732.16 768.834-735.029 772.407-735.021 776.527L-735.021 787.176C-735.021 792.037-731.064 795.977-726.181 795.977L-626.021 795.977-626.021 769.555C-635.269 767.237-644.654 765.498-654.122 764.349Z" fill="#3F3D56" fill-rule="evenodd"/><path d="M-63.9227 767.935C-67.1405 767.229-70.3598 766.62-73.5788 766.058-72.6663 764.464-72.1863 762.66-72.1863 760.825L-72.1863 716.005C-72.1863 710.142-76.9611 705.389-82.8513 705.389L-87.182 705.389C-77.2332 695.393-77.3077 679.261-87.3476 669.357-97.3877 659.452-113.591 659.527-123.539 669.522-133.422 679.453-133.422 695.458-123.539 705.389L-127.87 705.389C-133.76 705.389-138.535 710.142-138.535 716.005L-138.535 760.825C-138.532 762.026-138.324 763.218-137.92 764.349-147.388 765.498-156.773 767.237-166.021 769.555L-166.021 795.977-65.8621 795.977C-60.9794 795.977-57.021 792.037-57.021 787.176L-57.021 776.527C-57.0133 772.407-59.8833 768.834-63.9227 767.935Z" fill="#3F3D56" fill-rule="evenodd"/><path d="M-93.9998 686.865 163 667-42.0328 702-91.1656 693.486-93.9998 686.865Z" fill="#3F3D56" fill-rule="evenodd"/><path d="M-378.202 905.977-417.84 905.977C-424.015 905.977-429.021 910.999-429.021 917.195L-429.021 925.863C-429.018 930.526-426.139 934.699-421.793 936.346-423.431 938.32-424.327 940.809-424.324 943.377L-424.324 945.864C-424.324 949.462-422.57 952.833-419.627 954.888L-419.627 987.977-376.416 987.977-376.416 954.888C-373.472 952.833-371.718 949.462-371.718 945.864L-371.718 943.377C-371.715 940.809-372.611 938.32-374.249 936.346-369.902 934.699-367.023 930.526-367.021 925.863L-367.021 917.195C-367.021 910.999-372.027 905.977-378.202 905.977Z" fill="#3F3D56" fill-rule="evenodd"/><path d="M-438.355 983.977C-442.035 983.981-445.017 986.931-445.021 990.569L-445.021 1043.38C-445.017 1047.02-442.035 1049.97-438.355 1049.98L-357.686 1049.98C-354.006 1049.97-351.025 1047.02-351.021 1043.38L-351.021 990.569C-351.026 986.931-354.006 983.981-357.686 983.977Z" fill="#6C63FF" fill-rule="evenodd"/><path d="M-305.021 884.31-341.211 914.977-454.809 914.977-489.021 884.31-454.998 884.31-453.512 876.806C-452.613 872.256-448.667 868.979-444.083 868.976L-349.097 868.976C-344.513 868.979-340.566 872.256-339.668 876.806L-338.181 884.31Z" fill="#6C63FF" fill-rule="evenodd"/><path d="M-372 1017C-372 1031.36-383.64 1043-398 1043-412.359 1043-424 1031.36-424 1017-424 1002.64-412.359 991-398 991-383.64 991-372 1002.64-372 1017Z" fill="#3F3D56" fill-rule="evenodd"/><path d="M-383 1017C-383 1025.28-389.716 1032-398 1032-406.284 1032-413 1025.28-413 1017-413 1008.72-406.284 1002-398 1002-389.716 1002-383 1008.72-383 1017Z" fill="#E6E6E6" fill-rule="evenodd"/><path d="M-388.97 1004.98C-383.939 1011.57-385.207 1021-391.801 1026.03-397.18 1030.13-404.641 1030.13-410.021 1026.03-405.007 1032.64-395.583 1033.94-388.97 1028.92-382.357 1023.91-381.06 1014.49-386.073 1007.87-386.902 1006.78-387.877 1005.81-388.97 1004.98Z" fill="#FFFFFF" fill-rule="evenodd"/><path d="M-734 779-56.9999 779-56.9999 783-734 783Z" fill="#E6E6E6" fill-rule="evenodd"/><path d="M-40.2353 699.258-89.177 690.645-89.6576 689.504-92.0001 689.688-89.177 696.387-40.2353 705 164 667 103.475 674.343-40.2353 699.258Z" fill="#6C63FF" fill-rule="evenodd"/><path d="M-675 686.865-419 667-623.235 702-672.176 693.486-675 686.865Z" fill="#3F3D56" fill-rule="evenodd"/><path d="M-621.033 699.258-670.166 690.645-670.648 689.504-673 689.688-670.166 696.387-621.033 705-416 667-476.761 674.343-621.033 699.258Z" fill="#6C63FF" fill-rule="evenodd"/><path d="M-434 877-359 877-359 892-434 892Z" fill="#E6E6E6" fill-rule="evenodd"/><path d="M-66.0276 1757.96C-66.0276 1757.96-63.702 1708.69-16.0276 1714.42" fill="#F0F0F0" fill-rule="evenodd"/><path d="M-55.9999 1687C-55.9999 1700.25-66.7451 1711-80 1711-93.2549 1711-104 1700.25-104 1687-104 1673.75-93.2549 1663-80 1663-66.7451 1663-55.9999 1673.75-55.9999 1687Z" fill="#F0F0F0" fill-rule="evenodd"/><path d="M-83.9999 1727-77 1727-77 1775-83.9999 1775Z" fill="#F0F0F0" fill-rule="evenodd"/><path d="M352 1489C352 1596.14 265.143 1683 158 1683 50.8568 1683-36.0001 1596.14-36.0001 1489-36.0001 1381.86 50.8568 1295 158 1295 265.143 1295 352 1381.86 352 1489Z" fill="#3F3D56" fill-rule="evenodd"/><path d="M35.6131 1504.96C53.7708 1483.27 86.1108 1480.37 107.849 1498.49 110.199 1500.45 112.368 1502.61 114.331 1504.96 137.102 1483.27 137.939 1447.27 116.202 1424.56 94.4637 1401.84 58.3841 1401 35.6131 1422.69 12.8423 1444.38 12.006 1480.37 33.7426 1503.09 34.3526 1503.73 34.975 1504.35 35.6131 1504.96Z" fill="#FFFFFF" fill-rule="evenodd"/><path d="M189.613 1504.96C207.771 1483.27 240.111 1480.37 261.849 1498.49 264.199 1500.45 266.368 1502.61 268.331 1504.96 291.102 1483.27 291.938 1447.27 270.202 1424.56 248.464 1401.84 212.384 1401 189.613 1422.69 166.842 1444.38 166.006 1480.37 187.743 1503.09 188.351 1503.73 188.975 1504.35 189.613 1504.96Z" fill="#FFFFFF" fill-rule="evenodd"/><path d="M76.0001 1444C76.0001 1455.05 67.0458 1464 56.0001 1464 44.9545 1464 36.0001 1455.05 36.0001 1444 36.0001 1432.95 44.9545 1424 56.0001 1424 67.0458 1424 76.0001 1432.95 76.0001 1444Z" fill="#3F3D56" fill-rule="evenodd"/><path d="M229 1444C229 1455.05 220.27 1464 209.5 1464 198.731 1464 190 1455.05 190 1444 190 1432.95 198.731 1424 209.5 1424 220.27 1424 229 1432.95 229 1444Z" fill="#3F3D56" fill-rule="evenodd"/><path d="M41.0001 1537.5C41.0001 1549.93 30.9264 1560 18.5 1560 6.07357 1560-4.00013 1549.93-4.00013 1537.5-4.00013 1525.07 6.07357 1515 18.5 1515 30.9264 1515 41.0001 1525.07 41.0001 1537.5Z" fill="#6C63FF" fill-rule="evenodd"/><path d="M303 1537.5C303 1549.93 292.926 1560 280.5 1560 268.074 1560 258 1549.93 258 1537.5 258 1525.07 268.074 1515 280.5 1515 292.926 1515 303 1525.07 303 1537.5Z" fill="#6C63FF" fill-rule="evenodd"/><path d="M149.401 1492 132 1566 161 1537.54 149.401 1492Z" fill="#6C63FF" fill-rule="evenodd"/><path d="M237.63 1777 218.224 1760.72 218.677 1777 212.65 1777 212.167 1759.78 185.968 1777 175 1777 211.973 1752.71 210.54 1701.69 209.47 1663.17 215.483 1663 216.568 1701.69 217.998 1752.66 247 1777 237.63 1777Z" fill="#3F3D56" fill-rule="evenodd"/><path d="M145.627 1777 126.218 1760.72 126.671 1777 120.659 1777 120.176 1759.78 93.9698 1777 82.9998 1777 119.966 1752.71 118.534 1701.69 117.464 1663.17 123.49 1663 124.576 1701.69 125.992 1752.66 155 1777 145.627 1777Z" fill="#3F3D56" fill-rule="evenodd"/><path d="M160.829 1280.81C155.499 1280.81 150.795 1284.95 147.651 1291.31 144.88 1281.75 139.057 1275.1 132.258 1275.1 131.796 1275.14 131.337 1275.22 130.885 1275.33 128.271 1265.12 122.198 1257.96 115.115 1257.96 105.648 1257.96 97.9722 1270.75 97.9722 1286.53 97.9722 1302.31 105.648 1315.1 115.115 1315.1 115.577 1315.05 116.035 1314.97 116.487 1314.87 119.102 1325.08 125.176 1332.24 132.258 1332.24 137.589 1332.24 142.292 1328.1 145.436 1321.74 148.208 1331.3 154.03 1337.96 160.829 1337.96 170.297 1337.96 177.972 1325.16 177.972 1309.38 177.972 1293.6 170.297 1280.81 160.829 1280.81Z" fill="#3F3D56" fill-rule="evenodd"/><path d="M-24.4541 1495.38-131.075 1478.22C-136.448 1477.36-141.919 1476.49-147.309 1477.24-152.699 1478-158.094 1480.63-160.843 1485.29-164.629 1491.72-162.448 1499.97-155.975 1503.73-153.111 1505.39-149.733 1505.95-146.479 1505.31-152.298 1505.13-158.416 1505-163.58 1507.67-168.745 1510.34-172.401 1516.82-169.883 1522.03-169.128 1523.47-168.106 1524.75-166.871 1525.82-158.939 1532.87-147.627 1534.77-137.793 1530.71-141.719 1536.29-149.507 1537.13-156.245 1538.42-162.982 1539.71-170.772 1543.49-171.021 1550.3-171.304 1557.94-162.133 1562.01-154.584 1563.56-114.271 1571.79-72.427 1568.41-33.9905 1553.81-29.6704 1552.34-25.5827 1550.26-21.845 1547.66-9.80794 1538.59-7.46107 1521.55-16.6003 1509.61-20.6144 1504.36-26.4148 1500.74-32.9185 1499.43" fill="#3F3D56" fill-rule="evenodd"/><path d="M435.758 1582.46C418.206 1545.25 390.403 1513.86 355.633 1491.98 351.858 1489.42 347.743 1487.41 343.407 1486 328.905 1481.88 313.812 1490.32 309.696 1504.85 307.887 1511.24 308.456 1518.07 311.294 1524.06L302.972 1519.75C319.682 1551.62 336.391 1583.49 353.1 1615.36 355.625 1620.17 358.209 1625.07 362.045 1628.92 365.881 1632.78 371.23 1635.49 376.624 1634.87 384.015 1634.03 389.334 1627.35 388.504 1619.94 388.333 1618.42 387.906 1616.94 387.239 1615.56 389.584 1618.87 392.667 1621.59 396.245 1623.5 401.484 1626.01 408.886 1625.01 411.562 1619.84 412.265 1618.37 412.683 1616.77 412.796 1615.14 413.709 1604.53 408.457 1594.33 399.297 1588.94 406.138 1588.69 411.473 1594.41 416.551 1599.02 421.635 1603.62 429.338 1607.55 434.96 1603.63 441.27 1599.23 439.031 1589.44 435.758 1582.46Z" fill="#3F3D56" fill-rule="evenodd"/><path d="M465.403 1777.96-132.459 1777.96C-133.326 1777.96-134.028 1777.29-134.028 1776.46-134.028 1775.63-133.326 1774.96-132.459 1774.96L465.403 1774.96C466.267 1774.96 466.972 1775.63 466.972 1776.46 466.972 1777.29 466.267 1777.96 465.403 1777.96Z" fill="#CACACA" fill-rule="evenodd"/><path d="M2660.41 1935.64 2625.39 1920.87 2601.37 1744.97 2281.45 1744.97 2255.41 1920.15 2224.08 1935.84C2220.41 1937.69 2218.92 1942.16 2220.76 1945.85 2222.01 1948.37 2224.59 1949.97 2227.41 1949.97L2657.53 1949.97C2661.64 1949.97 2664.97 1946.63 2664.97 1942.51 2664.97 1939.51 2663.17 1936.81 2660.41 1935.64Z" fill="#E6E6E6" fill-rule="evenodd"/><path d="M3229.86 1767.97 1656.08 1767.97C1638.89 1767.93 1624.97 1753.98 1624.97 1736.8L1624.97 1514.97 3260.97 1514.97 3260.97 1736.8C3260.97 1753.98 3247.05 1767.93 3229.86 1767.97Z" fill="#CCCCCC" fill-rule="evenodd"/><path d="M3261.97 1619.97 1623.97 1619.97 1623.97 670.549C1623.99 649.801 1640.8 632.99 1661.53 632.966L3224.41 632.966C3245.14 632.99 3261.94 649.801 3261.97 670.549Z" fill="#3F3D56" fill-rule="evenodd"/><path d="M3165 1550.97 1721.94 1550.97C1705.95 1550.95 1692.98 1537.99 1692.97 1522L1692.97 730.935C1692.98 714.944 1705.95 701.985 1721.94 701.966L3165 701.966C3180.99 701.985 3193.95 714.944 3193.97 730.935L3193.97 1522C3193.95 1537.99 3180.99 1550.95 3165 1550.97Z" fill="#FFFFFF" fill-rule="evenodd"/><path d="M2847.3 1950.97 2036.79 1950.97C2035.08 1951 2033.56 1949.94 2033.09 1948.37 2032.57 1946.5 2033.74 1944.58 2035.71 1944.08 2036.01 1944.01 2036.32 1943.97 2036.64 1943.97L2847 1943.97C2848.8 1943.91 2850.41 1945.04 2850.88 1946.71 2851.32 1948.59 2850.07 1950.47 2848.09 1950.88 2847.83 1950.94 2847.56 1950.97 2847.3 1950.97Z" fill="#CCCCCC" fill-rule="evenodd"/><path d="M2173.99 1157.99C2173.99 1157.99 2174.69 1143.43 2188.99 1145.12" fill="#F0F0F0" fill-rule="evenodd"/><path d="M2177 1137.5C2177 1141.64 2173.87 1145 2170 1145 2166.13 1145 2163 1141.64 2163 1137.5 2163 1133.36 2166.13 1130 2170 1130 2173.87 1130 2177 1133.36 2177 1137.5Z" fill="#F0F0F0" fill-rule="evenodd"/><path d="M2169 1149 2171 1149 2171 1164 2169 1164Z" fill="#F0F0F0" fill-rule="evenodd"/><path d="M2298 1078.5C2298 1110.26 2272.26 1136 2240.5 1136 2208.74 1136 2183 1110.26 2183 1078.5 2183 1046.74 2208.74 1021 2240.5 1021 2272.26 1021 2298 1046.74 2298 1078.5Z" fill="#3F3D56" fill-rule="evenodd"/><path d="M2204.25 1082.99C2209.67 1076.57 2219.31 1075.71 2225.8 1081.07 2226.5 1081.65 2227.15 1082.29 2227.73 1082.99 2234.52 1076.57 2234.77 1065.92 2228.29 1059.19 2221.8 1052.47 2211.04 1052.23 2204.25 1058.64 2197.46 1065.06 2197.21 1075.71 2203.7 1082.43 2203.88 1082.62 2204.06 1082.81 2204.25 1082.99Z" fill="#FFFFFF" fill-rule="evenodd"/><path d="M2250.25 1082.99C2255.67 1076.57 2265.31 1075.71 2271.8 1081.07 2272.5 1081.65 2273.15 1082.29 2273.73 1082.99 2280.52 1076.57 2280.77 1065.92 2274.29 1059.19 2267.8 1052.47 2257.04 1052.23 2250.25 1058.64 2243.46 1065.06 2243.21 1075.71 2249.7 1082.43 2249.88 1082.62 2250.06 1082.81 2250.25 1082.99Z" fill="#FFFFFF" fill-rule="evenodd"/><path d="M2216 1065C2216 1068.31 2213.54 1071 2210.5 1071 2207.46 1071 2205 1068.31 2205 1065 2205 1061.69 2207.46 1059 2210.5 1059 2213.54 1059 2216 1061.69 2216 1065Z" fill="#3F3D56" fill-rule="evenodd"/><path d="M2262 1065C2262 1068.31 2259.31 1071 2256 1071 2252.69 1071 2250 1068.31 2250 1065 2250 1061.69 2252.69 1059 2256 1059 2259.31 1059 2262 1061.69 2262 1065Z" fill="#3F3D56" fill-rule="evenodd"/><path d="M2206 1093C2206 1096.87 2203.09 1100 2199.5 1100 2195.91 1100 2193 1096.87 2193 1093 2193 1089.13 2195.91 1086 2199.5 1086 2203.09 1086 2206 1089.13 2206 1093Z" fill="#6C63FF" fill-rule="evenodd"/><path d="M2284 1093C2284 1096.87 2280.87 1100 2277 1100 2273.13 1100 2270 1096.87 2270 1093 2270 1089.13 2273.13 1086 2277 1086 2280.87 1086 2284 1089.13 2284 1093Z" fill="#6C63FF" fill-rule="evenodd"/><path d="M2238.4 1080 2233 1101 2242 1092.92 2238.4 1080Z" fill="#6C63FF" fill-rule="evenodd"/><path d="M2264.27 1164 2258.61 1159.14 2258.74 1164 2256.98 1164 2256.84 1158.87 2249.2 1164 2246 1164 2256.78 1156.75 2256.37 1141.54 2256.05 1130.05 2257.81 1130 2258.12 1141.54 2258.54 1156.74 2267 1164 2264.27 1164Z" fill="#3F3D56" fill-rule="evenodd"/><path d="M2237.27 1164 2231.61 1159.14 2231.74 1164 2229.98 1164 2229.84 1158.87 2222.2 1164 2219 1164 2229.78 1156.75 2229.36 1141.54 2229.05 1130.05 2230.81 1130 2231.13 1141.54 2231.54 1156.74 2240 1164 2237.27 1164Z" fill="#3F3D56" fill-rule="evenodd"/><path d="M2241.85 1016.84C2240.25 1016.84 2238.84 1018.09 2237.9 1019.99 2237.06 1017.12 2235.32 1015.13 2233.28 1015.13 2233.14 1015.14 2233 1015.17 2232.87 1015.2 2232.08 1012.14 2230.26 1009.99 2228.13 1009.99 2225.29 1009.99 2222.99 1013.82 2222.99 1018.56 2222.99 1023.29 2225.29 1027.13 2228.13 1027.13 2228.27 1027.12 2228.41 1027.09 2228.55 1027.06 2229.33 1030.12 2231.15 1032.27 2233.28 1032.27 2234.88 1032.27 2236.29 1031.03 2237.23 1029.12 2238.06 1031.99 2239.81 1033.99 2241.85 1033.99 2244.69 1033.99 2246.99 1030.15 2246.99 1025.42 2246.99 1020.68 2244.69 1016.84 2241.85 1016.84Z" fill="#3F3D56" fill-rule="evenodd"/><path d="M2186.96 1080.45 2154.98 1075.36C2153.37 1075.11 2151.72 1074.85 2150.11 1075.07 2148.49 1075.3 2146.87 1076.08 2146.05 1077.46 2144.91 1079.37 2145.57 1081.82 2147.51 1082.93 2148.37 1083.42 2149.38 1083.59 2150.36 1083.4 2148.61 1083.34 2146.78 1083.31 2145.23 1084.1 2143.68 1084.89 2142.58 1086.82 2143.33 1088.36 2143.56 1088.79 2143.87 1089.17 2144.24 1089.48 2146.62 1091.58 2150.01 1092.14 2152.96 1090.94 2151.78 1092.59 2149.45 1092.84 2147.43 1093.22 2145.41 1093.61 2143.07 1094.73 2142.99 1096.75 2142.91 1099.02 2145.66 1100.22 2147.92 1100.68 2160.02 1103.13 2172.57 1102.12 2184.1 1097.79 2185.4 1097.35 2186.63 1096.74 2187.75 1095.96 2191.36 1093.27 2192.06 1088.22 2189.32 1084.68 2188.12 1083.12 2186.38 1082.04 2184.42 1081.65" fill="#3F3D56" fill-rule="evenodd"/><path d="M2323.05 1106.24C2317.88 1095.08 2309.71 1085.66 2299.48 1079.09 2298.37 1078.33 2297.16 1077.72 2295.88 1077.3 2291.62 1076.06 2287.18 1078.59 2285.97 1082.96 2285.44 1084.87 2285.6 1086.92 2286.44 1088.72L2283.99 1087.42C2288.91 1096.99 2293.82 1106.55 2298.74 1116.11 2299.48 1117.55 2300.24 1119.02 2301.37 1120.18 2302.49 1121.33 2304.07 1122.15 2305.65 1121.96 2307.83 1121.71 2309.39 1119.71 2309.15 1117.48 2309.1 1117.03 2308.97 1116.58 2308.78 1116.17 2309.47 1117.16 2310.37 1117.98 2311.43 1118.55 2312.97 1119.3 2315.14 1119 2315.93 1117.45 2316.14 1117.01 2316.26 1116.53 2316.29 1116.04 2316.56 1112.86 2315.02 1109.8 2312.32 1108.18 2314.33 1108.11 2315.9 1109.82 2317.4 1111.2 2318.89 1112.59 2321.16 1113.77 2322.81 1112.59 2324.67 1111.27 2324.01 1108.33 2323.05 1106.24Z" fill="#3F3D56" fill-rule="evenodd"/><path d="M2332.52 1164.99 2154.46 1164.99C2154.2 1164.99 2153.99 1164.76 2153.99 1164.49 2153.99 1164.21 2154.2 1163.99 2154.46 1163.99L2332.52 1163.99C2332.78 1163.99 2332.99 1164.21 2332.99 1164.49 2332.99 1164.76 2332.78 1164.99 2332.52 1164.99Z" fill="#CACACA" fill-rule="evenodd"/><rect x="2121" y="999" width="225" height="180" stroke="#6C63FF" stroke-width="21.7708" stroke-linecap="round" stroke-linejoin="round" stroke-miterlimit="10" fill="none"/><path d="M1944.99 1444.99C1944.99 1444.99 1945.64 1430.43 1958.99 1432.12" fill="#F0F0F0" fill-rule="evenodd"/><path d="M1948 1424C1948 1427.87 1944.64 1431 1940.5 1431 1936.36 1431 1933 1427.87 1933 1424 1933 1420.13 1936.36 1417 1940.5 1417 1944.64 1417 1948 1420.13 1948 1424Z" fill="#F0F0F0" fill-rule="evenodd"/><path d="M1939 1436 1941 1436 1941 1450 1939 1450Z" fill="#F0F0F0" fill-rule="evenodd"/><path d="M2069 1365.5C2069 1397.26 2043.26 1423 2011.5 1423 1979.74 1423 1954 1397.26 1954 1365.5 1954 1333.74 1979.74 1308 2011.5 1308 2043.26 1308 2069 1333.74 2069 1365.5Z" fill="#3F3D56" fill-rule="evenodd"/><path d="M1975.25 1369.99C1980.67 1363.57 1990.31 1362.71 1996.8 1368.07 1997.5 1368.65 1998.14 1369.29 1998.73 1369.99 2005.52 1363.57 2005.77 1352.92 1999.29 1346.19 1992.8 1339.47 1982.04 1339.23 1975.25 1345.64 1968.46 1352.06 1968.21 1362.71 1974.7 1369.43 1974.88 1369.62 1975.06 1369.81 1975.25 1369.99Z" fill="#FFFFFF" fill-rule="evenodd"/><path d="M2020.25 1369.99C2025.67 1363.57 2035.31 1362.71 2041.8 1368.07 2042.5 1368.65 2043.15 1369.29 2043.73 1369.99 2050.52 1363.57 2050.77 1352.92 2044.29 1346.19 2037.81 1339.47 2027.04 1339.23 2020.25 1345.64 2013.46 1352.06 2013.21 1362.71 2019.7 1369.43 2019.88 1369.62 2020.06 1369.81 2020.25 1369.99Z" fill="#FFFFFF" fill-rule="evenodd"/><path d="M1987 1352C1987 1355.31 1984.31 1358 1981 1358 1977.69 1358 1975 1355.31 1975 1352 1975 1348.69 1977.69 1346 1981 1346 1984.31 1346 1987 1348.69 1987 1352Z" fill="#3F3D56" fill-rule="evenodd"/><path d="M2032 1352C2032 1355.31 2029.54 1358 2026.5 1358 2023.46 1358 2021 1355.31 2021 1352 2021 1348.69 2023.46 1346 2026.5 1346 2029.54 1346 2032 1348.69 2032 1352Z" fill="#3F3D56" fill-rule="evenodd"/><path d="M1976 1379.5C1976 1383.09 1973.09 1386 1969.5 1386 1965.91 1386 1963 1383.09 1963 1379.5 1963 1375.91 1965.91 1373 1969.5 1373 1973.09 1373 1976 1375.91 1976 1379.5Z" fill="#6C63FF" fill-rule="evenodd"/><path d="M2054 1379.5C2054 1383.09 2051.09 1386 2047.5 1386 2043.91 1386 2041 1383.09 2041 1379.5 2041 1375.91 2043.91 1373 2047.5 1373 2051.09 1373 2054 1375.91 2054 1379.5Z" fill="#6C63FF" fill-rule="evenodd"/><path d="M2008.8 1366 2004 1388 2012 1379.54 2008.8 1366Z" fill="#6C63FF" fill-rule="evenodd"/><path d="M2034.27 1451 2028.61 1446.14 2028.74 1451 2026.98 1451 2026.84 1445.87 2019.2 1451 2016 1451 2026.78 1443.75 2026.37 1428.54 2026.05 1417.05 2027.81 1417 2028.12 1428.54 2028.54 1443.74 2037 1451 2034.27 1451Z" fill="#3F3D56" fill-rule="evenodd"/><path d="M2007.27 1451 2001.61 1446.14 2001.74 1451 1999.98 1451 1999.84 1445.87 1992.2 1451 1989 1451 1999.78 1443.75 1999.36 1428.54 1999.05 1417.05 2000.81 1417 2001.13 1428.54 2001.54 1443.74 2010 1451 2007.27 1451Z" fill="#3F3D56" fill-rule="evenodd"/><path d="M2011.85 1303.56C2010.25 1303.56 2008.84 1304.75 2007.9 1306.58 2007.06 1303.83 2005.32 1301.92 2003.28 1301.92 2003.14 1301.93 2003 1301.95 2002.87 1301.98 2002.08 1299.05 2000.26 1296.99 1998.13 1296.99 1995.29 1296.99 1992.99 1300.67 1992.99 1305.2 1992.99 1309.74 1995.29 1313.42 1998.13 1313.42 1998.27 1313.4 1998.41 1313.38 1998.55 1313.35 1999.33 1316.29 2001.15 1318.34 2003.28 1318.34 2004.88 1318.34 2006.29 1317.15 2007.23 1315.33 2008.06 1318.08 2009.81 1319.99 2011.85 1319.99 2014.69 1319.99 2016.99 1316.31 2016.99 1311.77 2016.99 1307.24 2014.69 1303.56 2011.85 1303.56Z" fill="#3F3D56" fill-rule="evenodd"/><path d="M1956.96 1366.66 1924.98 1361.38C1923.37 1361.11 1921.72 1360.84 1920.11 1361.07 1918.49 1361.31 1916.87 1362.12 1916.05 1363.55 1914.91 1365.53 1915.57 1368.07 1917.51 1369.22 1918.37 1369.73 1919.38 1369.91 1920.36 1369.71 1918.61 1369.65 1916.78 1369.62 1915.23 1370.44 1913.68 1371.26 1912.58 1373.25 1913.34 1374.86 1913.56 1375.3 1913.87 1375.69 1914.24 1376.02 1916.62 1378.19 1920.01 1378.78 1922.96 1377.53 1921.78 1379.24 1919.45 1379.5 1917.43 1379.9 1915.41 1380.3 1913.07 1381.46 1912.99 1383.55 1912.91 1385.91 1915.66 1387.16 1917.92 1387.64 1930.02 1390.17 1942.57 1389.13 1954.1 1384.63 1955.4 1384.18 1956.63 1383.54 1957.75 1382.74 1961.36 1379.95 1962.06 1374.71 1959.32 1371.03 1958.12 1369.42 1956.38 1368.31 1954.42 1367.9" fill="#3F3D56" fill-rule="evenodd"/><path d="M2094.02 1393.24C2088.73 1382.08 2080.35 1372.66 2069.87 1366.09 2068.73 1365.33 2067.49 1364.72 2066.18 1364.3 2061.81 1363.06 2057.26 1365.59 2056.02 1369.96 2055.47 1371.87 2055.64 1373.92 2056.5 1375.72L2053.99 1374.42C2059.03 1383.99 2064.07 1393.55 2069.1 1403.11 2069.87 1404.55 2070.64 1406.02 2071.8 1407.18 2072.96 1408.33 2074.57 1409.15 2076.2 1408.96 2078.42 1408.71 2080.03 1406.71 2079.78 1404.48 2079.73 1404.03 2079.6 1403.58 2079.4 1403.17 2080.1 1404.16 2081.03 1404.98 2082.11 1405.55 2083.69 1406.3 2085.92 1406 2086.73 1404.45 2086.94 1404.01 2087.07 1403.53 2087.1 1403.04 2087.38 1399.86 2085.79 1396.8 2083.03 1395.18 2085.09 1395.11 2086.7 1396.82 2088.23 1398.2 2089.77 1399.59 2092.09 1400.77 2093.78 1399.59 2095.68 1398.27 2095.01 1395.33 2094.02 1393.24Z" fill="#3F3D56" fill-rule="evenodd"/><path d="M2102.52 1450.99 1924.46 1450.99C1924.2 1450.99 1923.99 1450.76 1923.99 1450.49 1923.99 1450.21 1924.2 1449.99 1924.46 1449.99L2102.52 1449.99C2102.78 1449.99 2102.99 1450.21 2102.99 1450.49 2102.99 1450.76 2102.78 1450.99 2102.52 1450.99Z" fill="#CACACA" fill-rule="evenodd"/><rect x="1892" y="1285" width="224" height="181" stroke="#6C63FF" stroke-width="21.7708" stroke-linecap="round" stroke-linejoin="round" stroke-miterlimit="10" fill="none"/><path d="M2522.99 1392.99C2522.99 1392.99 2523.69 1378.43 2537.99 1380.12" fill="#F0F0F0" fill-rule="evenodd"/><path d="M2526 1372C2526 1375.87 2522.87 1379 2519 1379 2515.13 1379 2512 1375.87 2512 1372 2512 1368.13 2515.13 1365 2519 1365 2522.87 1365 2526 1368.13 2526 1372Z" fill="#F0F0F0" fill-rule="evenodd"/><path d="M2518 1384 2520 1384 2520 1398 2518 1398Z" fill="#F0F0F0" fill-rule="evenodd"/><path d="M2647 1313.5C2647 1345.26 2621.26 1371 2589.5 1371 2557.74 1371 2532 1345.26 2532 1313.5 2532 1281.74 2557.74 1256 2589.5 1256 2621.26 1256 2647 1281.74 2647 1313.5Z" fill="#3F3D56" fill-rule="evenodd"/><path d="M2553.25 1317.99C2558.67 1311.57 2568.31 1310.71 2574.8 1316.07 2575.5 1316.65 2576.14 1317.29 2576.73 1317.99 2583.52 1311.57 2583.77 1300.92 2577.29 1294.2 2570.8 1287.47 2560.04 1287.23 2553.25 1293.64 2546.46 1300.06 2546.21 1310.71 2552.7 1317.43 2552.88 1317.62 2553.06 1317.81 2553.25 1317.99Z" fill="#FFFFFF" fill-rule="evenodd"/><path d="M2599.25 1317.99C2604.67 1311.57 2614.31 1310.71 2620.8 1316.07 2621.5 1316.65 2622.15 1317.29 2622.73 1317.99 2629.52 1311.57 2629.77 1300.92 2623.29 1294.2 2616.8 1287.47 2606.04 1287.23 2599.25 1293.64 2592.46 1300.06 2592.21 1310.71 2598.7 1317.43 2598.88 1317.62 2599.06 1317.81 2599.25 1317.99Z" fill="#FFFFFF" fill-rule="evenodd"/><path d="M2565 1300C2565 1303.31 2562.54 1306 2559.5 1306 2556.46 1306 2554 1303.31 2554 1300 2554 1296.69 2556.46 1294 2559.5 1294 2562.54 1294 2565 1296.69 2565 1300Z" fill="#3F3D56" fill-rule="evenodd"/><path d="M2611 1300C2611 1303.31 2608.31 1306 2605 1306 2601.69 1306 2599 1303.31 2599 1300 2599 1296.69 2601.69 1294 2605 1294 2608.31 1294 2611 1296.69 2611 1300Z" fill="#3F3D56" fill-rule="evenodd"/><path d="M2555 1327.5C2555 1331.09 2552.09 1334 2548.5 1334 2544.91 1334 2542 1331.09 2542 1327.5 2542 1323.91 2544.91 1321 2548.5 1321 2552.09 1321 2555 1323.91 2555 1327.5Z" fill="#6C63FF" fill-rule="evenodd"/><path d="M2633 1327.5C2633 1331.09 2630.09 1334 2626.5 1334 2622.91 1334 2620 1331.09 2620 1327.5 2620 1323.91 2622.91 1321 2626.5 1321 2630.09 1321 2633 1323.91 2633 1327.5Z" fill="#6C63FF" fill-rule="evenodd"/><path d="M2587.4 1314 2582 1336 2591 1327.54 2587.4 1314Z" fill="#6C63FF" fill-rule="evenodd"/><path d="M2613.27 1398 2607.61 1393.29 2607.74 1398 2605.98 1398 2605.84 1393.02 2598.2 1398 2595 1398 2605.78 1390.97 2605.37 1376.2 2605.05 1365.05 2606.81 1365 2607.12 1376.2 2607.54 1390.95 2616 1398 2613.27 1398Z" fill="#3F3D56" fill-rule="evenodd"/><path d="M2586.27 1398 2580.61 1393.29 2580.74 1398 2578.98 1398 2578.84 1393.02 2571.2 1398 2568 1398 2578.78 1390.97 2578.36 1376.2 2578.05 1365.05 2579.81 1365 2580.13 1376.2 2580.54 1390.95 2589 1398 2586.27 1398Z" fill="#3F3D56" fill-rule="evenodd"/><path d="M2590.85 1251.56C2589.25 1251.56 2587.84 1252.75 2586.9 1254.58 2586.06 1251.83 2584.32 1249.92 2582.28 1249.92 2582.14 1249.93 2582 1249.95 2581.87 1249.98 2581.08 1247.05 2579.26 1244.99 2577.13 1244.99 2574.29 1244.99 2571.99 1248.67 2571.99 1253.2 2571.99 1257.74 2574.29 1261.42 2577.13 1261.42 2577.27 1261.4 2577.41 1261.38 2577.55 1261.35 2578.33 1264.29 2580.15 1266.34 2582.28 1266.34 2583.88 1266.34 2585.29 1265.15 2586.23 1263.33 2587.06 1266.08 2588.81 1267.99 2590.85 1267.99 2593.69 1267.99 2595.99 1264.31 2595.99 1259.77 2595.99 1255.24 2593.69 1251.56 2590.85 1251.56Z" fill="#3F3D56" fill-rule="evenodd"/><path d="M2535.96 1314.66 2503.98 1309.38C2502.37 1309.11 2500.72 1308.84 2499.11 1309.07 2497.49 1309.31 2495.87 1310.12 2495.05 1311.55 2493.91 1313.53 2494.57 1316.07 2496.51 1317.22 2497.37 1317.73 2498.38 1317.91 2499.36 1317.71 2497.61 1317.65 2495.77 1317.62 2494.23 1318.44 2492.68 1319.26 2491.58 1321.25 2492.33 1322.86 2492.56 1323.3 2492.87 1323.69 2493.24 1324.02 2495.62 1326.19 2499.01 1326.78 2501.96 1325.53 2500.78 1327.24 2498.45 1327.5 2496.43 1327.9 2494.41 1328.3 2492.07 1329.46 2491.99 1331.55 2491.91 1333.91 2494.66 1335.16 2496.92 1335.63 2509.02 1338.17 2521.57 1337.13 2533.1 1332.63 2534.4 1332.18 2535.62 1331.54 2536.75 1330.74 2540.36 1327.95 2541.06 1322.71 2538.32 1319.03 2537.12 1317.42 2535.38 1316.31 2533.42 1315.9" fill="#3F3D56" fill-rule="evenodd"/><path d="M2672.05 1340.59C2666.88 1329.67 2658.71 1320.47 2648.48 1314.05 2647.37 1313.3 2646.16 1312.71 2644.88 1312.29 2640.62 1311.08 2636.18 1313.56 2634.97 1317.82 2634.44 1319.7 2634.6 1321.7 2635.44 1323.46L2632.99 1322.19C2637.91 1331.54 2642.82 1340.89 2647.74 1350.24 2648.48 1351.65 2649.24 1353.09 2650.37 1354.22 2651.49 1355.35 2653.07 1356.14 2654.65 1355.96 2656.83 1355.72 2658.39 1353.76 2658.15 1351.58 2658.1 1351.14 2657.97 1350.7 2657.78 1350.3 2658.47 1351.27 2659.37 1352.07 2660.43 1352.63 2661.97 1353.36 2664.14 1353.07 2664.93 1351.55 2665.14 1351.12 2665.26 1350.65 2665.29 1350.17 2665.56 1347.06 2664.02 1344.07 2661.32 1342.49 2663.33 1342.42 2664.9 1344.1 2666.4 1345.44 2667.89 1346.79 2670.16 1347.95 2671.81 1346.8 2673.67 1345.51 2673.01 1342.63 2672.05 1340.59Z" fill="#3F3D56" fill-rule="evenodd"/><path d="M2681.52 1398.99 2503.46 1398.99C2503.2 1398.99 2502.99 1398.76 2502.99 1398.49 2502.99 1398.21 2503.2 1397.99 2503.46 1397.99L2681.52 1397.99C2681.78 1397.99 2681.99 1398.21 2681.99 1398.49 2681.99 1398.76 2681.78 1398.99 2681.52 1398.99Z" fill="#CACACA" fill-rule="evenodd"/><rect x="2470" y="1233" width="225" height="181" stroke="#6C63FF" stroke-width="21.7708" stroke-linecap="round" stroke-linejoin="round" stroke-miterlimit="10" fill="none"/><path d="M2925.99 1456.99C2925.99 1456.99 2926.64 1442.43 2939.99 1444.12" fill="#F0F0F0" fill-rule="evenodd"/><path d="M2929 1436.5C2929 1440.64 2925.64 1444 2921.5 1444 2917.36 1444 2914 1440.64 2914 1436.5 2914 1432.36 2917.36 1429 2921.5 1429 2925.64 1429 2929 1432.36 2929 1436.5Z" fill="#F0F0F0" fill-rule="evenodd"/><path d="M2920 1448 2922 1448 2922 1463 2920 1463Z" fill="#F0F0F0" fill-rule="evenodd"/><path d="M3050 1377.5C3050 1409.26 3024.26 1435 2992.5 1435 2960.74 1435 2935 1409.26 2935 1377.5 2935 1345.74 2960.74 1320 2992.5 1320 3024.26 1320 3050 1345.74 3050 1377.5Z" fill="#3F3D56" fill-rule="evenodd"/><path d="M2956.25 1381.99C2961.67 1375.57 2971.31 1374.71 2977.8 1380.07 2978.5 1380.65 2979.15 1381.29 2979.73 1381.99 2986.52 1375.57 2986.77 1364.92 2980.29 1358.19 2973.8 1351.47 2963.04 1351.23 2956.25 1357.64 2949.46 1364.06 2949.21 1374.71 2955.7 1381.43 2955.88 1381.62 2956.06 1381.81 2956.25 1381.99Z" fill="#FFFFFF" fill-rule="evenodd"/><path d="M3001.25 1381.99C3006.67 1375.57 3016.31 1374.71 3022.8 1380.07 3023.5 1380.65 3024.15 1381.29 3024.73 1381.99 3031.52 1375.57 3031.77 1364.92 3025.29 1358.19 3018.81 1351.47 3008.04 1351.23 3001.25 1357.64 2994.46 1364.06 2994.21 1374.71 3000.7 1381.43 3000.88 1381.62 3001.06 1381.81 3001.25 1381.99Z" fill="#FFFFFF" fill-rule="evenodd"/><path d="M2968 1364C2968 1367.31 2965.31 1370 2962 1370 2958.69 1370 2956 1367.31 2956 1364 2956 1360.69 2958.69 1358 2962 1358 2965.31 1358 2968 1360.69 2968 1364Z" fill="#3F3D56" fill-rule="evenodd"/><path d="M3013 1364C3013 1367.31 3010.54 1370 3007.5 1370 3004.46 1370 3002 1367.31 3002 1364 3002 1360.69 3004.46 1358 3007.5 1358 3010.54 1358 3013 1360.69 3013 1364Z" fill="#3F3D56" fill-rule="evenodd"/><path d="M2958 1392C2958 1395.87 2954.87 1399 2951 1399 2947.13 1399 2944 1395.87 2944 1392 2944 1388.13 2947.13 1385 2951 1385 2954.87 1385 2958 1388.13 2958 1392Z" fill="#6C63FF" fill-rule="evenodd"/><path d="M3035 1392C3035 1395.87 3032.09 1399 3028.5 1399 3024.91 1399 3022 1395.87 3022 1392 3022 1388.13 3024.91 1385 3028.5 1385 3032.09 1385 3035 1388.13 3035 1392Z" fill="#6C63FF" fill-rule="evenodd"/><path d="M2989.8 1379 2985 1401 2993 1392.54 2989.8 1379Z" fill="#6C63FF" fill-rule="evenodd"/><path d="M3016.14 1463 3010.21 1458.14 3010.35 1463 3008.5 1463 3008.36 1457.87 3000.35 1463 2997 1463 3008.3 1455.75 3007.86 1440.54 3007.53 1429.05 3009.37 1429 3009.7 1440.54 3010.14 1455.74 3019 1463 3016.14 1463Z" fill="#3F3D56" fill-rule="evenodd"/><path d="M2988.27 1463 2982.61 1458.14 2982.74 1463 2980.98 1463 2980.84 1457.87 2973.2 1463 2970 1463 2980.78 1455.75 2980.36 1440.54 2980.05 1429.05 2981.81 1429 2982.13 1440.54 2982.54 1455.74 2991 1463 2988.27 1463Z" fill="#3F3D56" fill-rule="evenodd"/><path d="M2992.85 1315.84C2991.25 1315.84 2989.84 1317.09 2988.9 1318.99 2988.06 1316.12 2986.32 1314.13 2984.28 1314.13 2984.14 1314.14 2984 1314.17 2983.87 1314.2 2983.08 1311.14 2981.26 1308.99 2979.13 1308.99 2976.29 1308.99 2973.99 1312.82 2973.99 1317.56 2973.99 1322.29 2976.29 1326.13 2979.13 1326.13 2979.27 1326.12 2979.41 1326.09 2979.55 1326.06 2980.33 1329.12 2982.15 1331.27 2984.28 1331.27 2985.88 1331.27 2987.29 1330.03 2988.23 1328.12 2989.06 1330.99 2990.81 1332.99 2992.85 1332.99 2995.69 1332.99 2997.99 1329.15 2997.99 1324.42 2997.99 1319.68 2995.69 1315.84 2992.85 1315.84Z" fill="#3F3D56" fill-rule="evenodd"/><path d="M2937.96 1379.45 2905.98 1374.36C2904.37 1374.11 2902.72 1373.85 2901.11 1374.07 2899.49 1374.3 2897.87 1375.08 2897.05 1376.46 2895.91 1378.37 2896.57 1380.82 2898.51 1381.93 2899.37 1382.42 2900.38 1382.59 2901.36 1382.4 2899.61 1382.35 2897.78 1382.31 2896.23 1383.1 2894.68 1383.89 2893.58 1385.82 2894.33 1387.36 2894.56 1387.79 2894.87 1388.17 2895.24 1388.48 2897.62 1390.58 2901.01 1391.14 2903.96 1389.94 2902.78 1391.59 2900.45 1391.84 2898.43 1392.22 2896.41 1392.61 2894.07 1393.73 2893.99 1395.75 2893.91 1398.02 2896.66 1399.22 2898.92 1399.68 2911.02 1402.13 2923.57 1401.12 2935.1 1396.79 2936.4 1396.35 2937.63 1395.74 2938.75 1394.96 2942.36 1392.27 2943.06 1387.22 2940.32 1383.68 2939.12 1382.12 2937.38 1381.05 2935.42 1380.65" fill="#3F3D56" fill-rule="evenodd"/><path d="M3075.02 1405.24C3069.73 1394.08 3061.35 1384.66 3050.87 1378.09 3049.73 1377.33 3048.49 1376.72 3047.18 1376.3 3042.81 1375.06 3038.26 1377.59 3037.02 1381.96 3036.47 1383.87 3036.64 1385.92 3037.5 1387.72L3034.99 1386.42C3040.03 1395.99 3045.07 1405.55 3050.1 1415.11 3050.86 1416.55 3051.64 1418.02 3052.8 1419.18 3053.96 1420.33 3055.57 1421.15 3057.2 1420.96 3059.42 1420.71 3061.03 1418.71 3060.78 1416.48 3060.73 1416.03 3060.6 1415.58 3060.4 1415.17 3061.1 1416.16 3062.03 1416.98 3063.11 1417.55 3064.69 1418.3 3066.92 1418 3067.73 1416.45 3067.94 1416.01 3068.07 1415.53 3068.1 1415.04 3068.38 1411.86 3066.79 1408.8 3064.03 1407.18 3066.09 1407.11 3067.7 1408.82 3069.23 1410.2 3070.76 1411.59 3073.09 1412.77 3074.78 1411.59 3076.68 1410.27 3076.01 1407.33 3075.02 1405.24Z" fill="#3F3D56" fill-rule="evenodd"/><path d="M3083.52 1463.99 2905.46 1463.99C2905.2 1463.99 2904.99 1463.76 2904.99 1463.49 2904.99 1463.21 2905.2 1462.99 2905.46 1462.99L3083.52 1462.99C3083.78 1462.99 3083.99 1463.21 3083.99 1463.49 3083.99 1463.76 3083.78 1463.99 3083.52 1463.99Z" fill="#CACACA" fill-rule="evenodd"/><rect x="2873" y="1298" width="225" height="180" stroke="#6C63FF" stroke-width="21.7708" stroke-linecap="round" stroke-linejoin="round" stroke-miterlimit="10" fill="none"/><path d="M2709.99 1024.99C2709.99 1024.99 2710.69 1010.43 2724.99 1012.12" fill="#F0F0F0" fill-rule="evenodd"/><path d="M2713 1004C2713 1007.87 2709.87 1011 2706 1011 2702.13 1011 2699 1007.87 2699 1004 2699 1000.13 2702.13 997 2706 997 2709.87 997 2713 1000.13 2713 1004Z" fill="#F0F0F0" fill-rule="evenodd"/><path d="M2705 1016 2707 1016 2707 1030 2705 1030Z" fill="#F0F0F0" fill-rule="evenodd"/><path d="M2834 945.5C2834 977.256 2808.26 1003 2776.5 1003 2744.74 1003 2719 977.256 2719 945.5 2719 913.744 2744.74 888 2776.5 888 2808.26 888 2834 913.744 2834 945.5Z" fill="#3F3D56" fill-rule="evenodd"/><path d="M2740.25 949.987C2745.67 943.57 2755.31 942.713 2761.8 948.073 2762.5 948.653 2763.14 949.293 2763.73 949.987 2770.52 943.57 2770.77 932.918 2764.29 926.195 2757.8 919.473 2747.04 919.225 2740.25 925.643 2733.46 932.06 2733.21 942.713 2739.7 949.435 2739.88 949.623 2740.06 949.807 2740.25 949.987Z" fill="#FFFFFF" fill-rule="evenodd"/><path d="M2786.25 949.987C2791.67 943.57 2801.31 942.713 2807.8 948.073 2808.5 948.653 2809.15 949.293 2809.73 949.987 2816.52 943.57 2816.77 932.918 2810.29 926.195 2803.8 919.473 2793.04 919.225 2786.25 925.643 2779.46 932.06 2779.21 942.713 2785.7 949.435 2785.88 949.623 2786.06 949.807 2786.25 949.987Z" fill="#FFFFFF" fill-rule="evenodd"/><path d="M2752 932C2752 935.314 2749.54 938 2746.5 938 2743.46 938 2741 935.314 2741 932 2741 928.686 2743.46 926 2746.5 926 2749.54 926 2752 928.686 2752 932Z" fill="#3F3D56" fill-rule="evenodd"/><path d="M2798 932C2798 935.314 2795.31 938 2792 938 2788.69 938 2786 935.314 2786 932 2786 928.686 2788.69 926 2792 926 2795.31 926 2798 928.686 2798 932Z" fill="#3F3D56" fill-rule="evenodd"/><path d="M2742 960C2742 963.866 2739.09 967 2735.5 967 2731.91 967 2729 963.866 2729 960 2729 956.134 2731.91 953 2735.5 953 2739.09 953 2742 956.134 2742 960Z" fill="#6C63FF" fill-rule="evenodd"/><path d="M2820 960C2820 963.866 2816.87 967 2813 967 2809.13 967 2806 963.866 2806 960 2806 956.134 2809.13 953 2813 953 2816.87 953 2820 956.134 2820 960Z" fill="#6C63FF" fill-rule="evenodd"/><path d="M2774.4 946 2769 968 2778 959.539 2774.4 946Z" fill="#6C63FF" fill-rule="evenodd"/><path d="M2800.27 1031 2794.61 1026.14 2794.74 1031 2792.98 1031 2792.84 1025.87 2785.2 1031 2782 1031 2792.78 1023.75 2792.37 1008.54 2792.05 997.049 2793.81 997 2794.12 1008.54 2794.54 1023.74 2803 1031 2800.27 1031Z" fill="#3F3D56" fill-rule="evenodd"/><path d="M2773.27 1031 2767.61 1026.14 2767.74 1031 2765.98 1031 2765.84 1025.87 2758.2 1031 2755 1031 2765.78 1023.75 2765.36 1008.54 2765.05 997.049 2766.81 997 2767.13 1008.54 2767.54 1023.74 2776 1031 2773.27 1031Z" fill="#3F3D56" fill-rule="evenodd"/><path d="M2777.85 883.844C2776.25 883.844 2774.84 885.086 2773.9 886.994 2773.06 884.125 2771.32 882.129 2769.28 882.129 2769.14 882.143 2769 882.166 2768.87 882.198 2768.08 879.135 2766.26 876.987 2764.13 876.987 2761.29 876.987 2758.99 880.824 2758.99 885.558 2758.99 890.292 2761.29 894.129 2764.13 894.129 2764.27 894.116 2764.41 894.092 2764.55 894.06 2765.33 897.124 2767.15 899.273 2769.28 899.273 2770.88 899.273 2772.29 898.03 2773.23 896.122 2774.06 898.991 2775.81 900.987 2777.85 900.987 2780.69 900.987 2782.99 897.149 2782.99 892.415 2782.99 887.681 2780.69 883.844 2777.85 883.844Z" fill="#3F3D56" fill-rule="evenodd"/><path d="M2722.96 947.454 2690.98 942.362C2689.37 942.106 2687.72 941.849 2686.11 942.072 2684.49 942.295 2682.87 943.077 2682.05 944.46 2680.91 946.367 2681.57 948.815 2683.51 949.93 2684.37 950.423 2685.38 950.59 2686.36 950.4 2684.61 950.345 2682.77 950.308 2681.23 951.1 2679.68 951.892 2678.58 953.815 2679.33 955.361 2679.56 955.788 2679.87 956.169 2680.24 956.484 2682.62 958.577 2686.01 959.142 2688.96 957.936 2687.78 959.593 2685.45 959.839 2683.43 960.223 2681.41 960.607 2679.07 961.729 2678.99 963.748 2678.91 966.016 2681.66 967.222 2683.92 967.684 2696.02 970.126 2708.57 969.122 2720.1 964.79 2721.4 964.352 2722.62 963.738 2723.75 962.965 2727.36 960.273 2728.06 955.219 2725.32 951.676 2724.12 950.119 2722.38 949.045 2720.42 948.654" fill="#3F3D56" fill-rule="evenodd"/><path d="M2859.05 973.237C2853.88 962.076 2845.71 952.658 2835.48 946.095 2834.37 945.327 2833.16 944.723 2831.88 944.301 2827.62 943.063 2823.18 945.594 2821.97 949.956 2821.44 951.872 2821.6 953.92 2822.44 955.719L2819.99 954.424C2824.91 963.985 2829.82 973.546 2834.74 983.107 2835.48 984.552 2836.24 986.022 2837.37 987.177 2838.49 988.333 2840.07 989.148 2841.65 988.96 2843.83 988.71 2845.39 986.706 2845.15 984.483 2845.1 984.026 2844.97 983.581 2844.78 983.167 2845.47 984.161 2846.37 984.977 2847.43 985.55 2848.97 986.303 2851.14 986.002 2851.93 984.452 2852.14 984.01 2852.26 983.531 2852.29 983.042 2852.56 979.859 2851.02 976.8 2848.32 975.181 2850.33 975.107 2851.9 976.824 2853.4 978.205 2854.89 979.585 2857.16 980.766 2858.81 979.589 2860.67 978.268 2860.01 975.331 2859.05 973.237Z" fill="#3F3D56" fill-rule="evenodd"/><path d="M2868.52 1031.99 2690.46 1031.99C2690.2 1031.99 2689.99 1031.76 2689.99 1031.49 2689.99 1031.21 2690.2 1030.99 2690.46 1030.99L2868.52 1030.99C2868.78 1030.99 2868.99 1031.21 2868.99 1031.49 2868.99 1031.76 2868.78 1031.99 2868.52 1031.99Z" fill="#CACACA" fill-rule="evenodd"/><rect x="2657" y="865" width="225" height="181" stroke="#6C63FF" stroke-width="21.7708" stroke-linecap="round" stroke-linejoin="round" stroke-miterlimit="10" fill="none"/><path d="M1886.99 980.987C1886.99 980.987 1887.64 966.432 1900.99 968.124" fill="#F0F0F0" fill-rule="evenodd"/><path d="M1890 960C1890 963.866 1886.64 967 1882.5 967 1878.36 967 1875 963.866 1875 960 1875 956.134 1878.36 953 1882.5 953 1886.64 953 1890 956.134 1890 960Z" fill="#F0F0F0" fill-rule="evenodd"/><path d="M1881 972 1883 972 1883 986 1881 986Z" fill="#F0F0F0" fill-rule="evenodd"/><path d="M2011 901.5C2011 933.256 1985.26 959 1953.5 959 1921.74 959 1896 933.256 1896 901.5 1896 869.744 1921.74 844 1953.5 844 1985.26 844 2011 869.744 2011 901.5Z" fill="#3F3D56" fill-rule="evenodd"/><path d="M1917.25 905.987C1922.67 899.57 1932.31 898.713 1938.8 904.073 1939.5 904.653 1940.14 905.293 1940.73 905.987 1947.52 899.57 1947.77 888.918 1941.29 882.195 1934.8 875.473 1924.04 875.225 1917.25 881.643 1910.46 888.06 1910.21 898.713 1916.7 905.435 1916.88 905.623 1917.06 905.807 1917.25 905.987Z" fill="#FFFFFF" fill-rule="evenodd"/><path d="M1962.25 905.987C1967.67 899.57 1977.31 898.713 1983.8 904.073 1984.5 904.653 1985.14 905.293 1985.73 905.987 1992.52 899.57 1992.77 888.918 1986.29 882.195 1979.8 875.473 1969.04 875.225 1962.25 881.643 1955.46 888.06 1955.21 898.713 1961.7 905.435 1961.88 905.623 1962.06 905.807 1962.25 905.987Z" fill="#FFFFFF" fill-rule="evenodd"/><path d="M1929 887.5C1929 890.538 1926.31 893 1923 893 1919.69 893 1917 890.538 1917 887.5 1917 884.463 1919.69 882 1923 882 1926.31 882 1929 884.462 1929 887.5Z" fill="#3F3D56" fill-rule="evenodd"/><path d="M1974 887.5C1974 890.538 1971.54 893 1968.5 893 1965.46 893 1963 890.538 1963 887.5 1963 884.463 1965.46 882 1968.5 882 1971.54 882 1974 884.462 1974 887.5Z" fill="#3F3D56" fill-rule="evenodd"/><path d="M1919 915.5C1919 919.09 1915.87 922 1912 922 1908.13 922 1905 919.09 1905 915.5 1905 911.91 1908.13 909 1912 909 1915.87 909 1919 911.91 1919 915.5Z" fill="#6C63FF" fill-rule="evenodd"/><path d="M1996 915.5C1996 919.09 1993.09 922 1989.5 922 1985.91 922 1983 919.09 1983 915.5 1983 911.91 1985.91 909 1989.5 909 1993.09 909 1996 911.91 1996 915.5Z" fill="#6C63FF" fill-rule="evenodd"/><path d="M1950.8 902 1946 924 1954 915.539 1950.8 902Z" fill="#6C63FF" fill-rule="evenodd"/><path d="M1977.14 986 1971.21 981.287 1971.35 986 1969.5 986 1969.36 981.016 1961.35 986 1958 986 1969.3 978.967 1968.86 964.2 1968.53 953.048 1970.37 953 1970.7 964.2 1971.14 978.954 1980 986 1977.14 986Z" fill="#3F3D56" fill-rule="evenodd"/><path d="M1949.27 986 1943.61 981.287 1943.74 986 1941.98 986 1941.84 981.016 1934.2 986 1931 986 1941.78 978.967 1941.36 964.2 1941.05 953.048 1942.81 953 1943.13 964.2 1943.54 978.954 1952 986 1949.27 986Z" fill="#3F3D56" fill-rule="evenodd"/><path d="M1953.85 839.558C1952.25 839.558 1950.84 840.749 1949.9 842.578 1949.06 839.828 1947.32 837.916 1945.28 837.916 1945.14 837.929 1945 837.951 1944.87 837.982 1944.08 835.046 1942.26 832.987 1940.13 832.987 1937.29 832.987 1934.99 836.665 1934.99 841.202 1934.99 845.738 1937.29 849.415 1940.13 849.415 1940.27 849.402 1940.41 849.38 1940.55 849.349 1941.33 852.285 1943.15 854.344 1945.28 854.344 1946.88 854.344 1948.29 853.154 1949.23 851.325 1950.06 854.075 1951.81 855.987 1953.85 855.987 1956.69 855.987 1958.99 852.31 1958.99 847.773 1958.99 843.236 1956.69 839.558 1953.85 839.558Z" fill="#3F3D56" fill-rule="evenodd"/><path d="M1898.96 902.656 1866.98 897.376C1865.37 897.11 1863.72 896.843 1862.11 897.075 1860.49 897.306 1858.87 898.117 1858.05 899.551 1856.91 901.528 1857.57 904.068 1859.51 905.224 1860.37 905.735 1861.38 905.909 1862.36 905.712 1860.61 905.654 1858.78 905.616 1857.23 906.437 1855.68 907.258 1854.58 909.253 1855.33 910.856 1855.56 911.299 1855.87 911.693 1856.24 912.02 1858.62 914.191 1862.01 914.777 1864.96 913.526 1863.78 915.245 1861.45 915.5 1859.43 915.898 1857.41 916.296 1855.07 917.459 1854.99 919.553 1854.91 921.906 1857.66 923.156 1859.92 923.635 1872.02 926.167 1884.57 925.127 1896.1 920.634 1897.4 920.18 1898.63 919.543 1899.75 918.741 1903.36 915.95 1904.06 910.709 1901.32 907.034 1900.12 905.42 1898.38 904.306 1896.42 903.9" fill="#3F3D56" fill-rule="evenodd"/><path d="M2036.02 928.588C2030.73 917.675 2022.35 908.466 2011.87 902.048 2010.73 901.297 2009.49 900.707 2008.18 900.294 2003.81 899.084 1999.26 901.559 1998.02 905.824 1997.47 907.697 1997.64 909.7 1998.5 911.458L1995.99 910.193C2001.03 919.541 2006.07 928.889 2011.1 938.238 2011.87 939.651 2012.64 941.088 2013.8 942.218 2014.96 943.348 2016.57 944.145 2018.2 943.961 2020.42 943.716 2022.03 941.757 2021.78 939.583 2021.73 939.136 2021.6 938.702 2021.4 938.297 2022.1 939.269 2023.03 940.066 2024.11 940.627 2025.69 941.363 2027.92 941.069 2028.73 939.553 2028.94 939.121 2029.07 938.653 2029.1 938.174 2029.38 935.062 2027.79 932.071 2025.03 930.488 2027.09 930.416 2028.7 932.095 2030.23 933.445 2031.76 934.795 2034.09 935.949 2035.78 934.798 2037.68 933.506 2037.01 930.634 2036.02 928.588Z" fill="#3F3D56" fill-rule="evenodd"/><path d="M2044.52 986.986 1866.46 986.986C1866.2 986.986 1865.99 986.762 1865.99 986.486 1865.99 986.209 1866.2 985.986 1866.46 985.986L2044.52 985.986C2044.78 985.986 2044.99 986.209 2044.99 986.486 2044.99 986.762 2044.78 986.986 2044.52 986.986Z" fill="#CACACA" fill-rule="evenodd"/><rect x="1834" y="821" width="225" height="181" stroke="#6C63FF" stroke-width="21.7708" stroke-linecap="round" stroke-linejoin="round" stroke-miterlimit="10" fill="none"/><path d="M1766.88 850.611C1767.56 844.362 1764.25 838.356 1758.59 835.588L1481.43 700.5C1474.02 696.885 1465.07 699.945 1461.44 707.336L1461.44 707.347 1357.49 919.446C1353.87 926.843 1356.95 935.76 1364.35 939.383L1641.51 1074.47C1648.93 1078.07 1657.87 1075.01 1661.5 1067.62L1765.45 855.525C1766.21 853.982 1766.7 852.32 1766.88 850.611Z" fill="#F2F2F2" fill-rule="evenodd"/><path d="M1603.97 1320.98 1245.97 1320.98C1236.59 1320.97 1228.98 1313.35 1228.97 1303.95L1228.97 817.014C1228.98 807.611 1236.59 799.991 1245.97 799.981L1603.97 799.981C1613.36 799.991 1620.96 807.611 1620.97 817.014L1620.97 1303.95C1620.96 1313.35 1613.36 1320.97 1603.97 1320.98Z" fill="#FFFFFF" fill-rule="evenodd"/><path d="M1603.97 1320.98 1245.97 1320.98C1236.59 1320.97 1228.98 1313.35 1228.97 1303.95L1228.97 817.014C1228.98 807.611 1236.59 799.991 1245.97 799.981L1603.97 799.981C1613.36 799.991 1620.96 807.611 1620.97 817.014L1620.97 1303.95C1620.96 1313.35 1613.36 1320.97 1603.97 1320.98ZM1245.97 801.985C1237.69 801.994 1230.98 808.717 1230.97 817.014L1230.97 1303.95C1230.98 1312.24 1237.69 1318.97 1245.97 1318.98L1603.97 1318.98C1612.25 1318.97 1618.96 1312.24 1618.97 1303.95L1618.97 817.014C1618.96 808.717 1612.25 801.994 1603.97 801.985Z" fill="#CCCCCC" fill-rule="evenodd"/><path d="M1534.94 1146.98 1282.01 1146.98C1277.57 1146.98 1273.97 1143.4 1273.97 1138.98 1273.97 1134.56 1277.57 1130.98 1282.01 1130.98L1534.94 1130.98C1539.38 1130.98 1542.97 1134.56 1542.97 1138.98 1542.97 1143.4 1539.38 1146.98 1534.94 1146.98Z" fill="#E6E6E6" fill-rule="evenodd"/><path d="M1567.94 1173.98 1282 1173.98C1277.57 1173.98 1273.97 1170.4 1273.97 1165.98 1273.97 1161.56 1277.57 1157.98 1282 1157.98L1567.94 1157.98C1572.38 1157.98 1575.97 1161.56 1575.97 1165.98 1575.97 1170.4 1572.38 1173.98 1567.94 1173.98Z" fill="#E6E6E6" fill-rule="evenodd"/><path d="M1534.94 1236.98 1282.01 1236.98C1277.57 1236.98 1273.97 1233.4 1273.97 1228.98 1273.97 1224.56 1277.57 1220.98 1282.01 1220.98L1534.94 1220.98C1539.38 1220.98 1542.97 1224.56 1542.97 1228.98 1542.97 1233.4 1539.38 1236.98 1534.94 1236.98Z" fill="#E6E6E6" fill-rule="evenodd"/><path d="M1567.95 1263.98 1282 1263.98C1277.57 1263.98 1273.97 1260.4 1273.97 1255.98 1273.97 1251.56 1277.57 1247.98 1282 1247.98L1567.95 1247.98C1572.39 1247.99 1575.98 1251.57 1575.97 1255.99 1575.97 1260.4 1572.38 1263.98 1567.95 1263.98Z" fill="#E6E6E6" fill-rule="evenodd"/><path d="M1705.26 1410.98 1106.58 1410.98C1095.75 1410.97 1086.98 1402.21 1086.97 1391.4L1086.97 1052.57C1086.98 1041.76 1095.75 1032.99 1106.58 1032.98 1116.15 1032.99 1123.91 1040.74 1123.92 1050.3L1123.92 1368.02C1123.93 1378.16 1132.15 1386.37 1142.29 1386.38L1703.24 1386.38C1708.97 1386.31 1714.01 1390.17 1715.45 1395.71 1717.06 1400.97 1714.87 1406.65 1710.14 1409.47 1708.69 1410.42 1707 1410.94 1705.26 1410.98Z" fill="#F2F2F2" fill-rule="evenodd"/><path d="M1364 922.5C1364 935.479 1353.48 946 1340.5 946 1327.52 946 1317 935.479 1317 922.5 1317 909.521 1327.52 899 1340.5 899 1353.48 899 1364 909.521 1364 922.5Z" fill="#E6E6E6" fill-rule="evenodd"/><path d="M1304.97 986.045C1308.27 987.955 1311.72 989.576 1315.29 990.889L1315.92 991.112C1323.11 993.682 1330.68 994.991 1338.3 994.981 1339.83 994.981 1341.31 994.927 1342.69 994.821 1346.04 994.612 1349.38 994.143 1352.67 993.419 1354.47 993.018 1356.27 992.537 1358.01 991.994 1358.43 991.867 1358.82 991.744 1359.25 991.607 1366.34 989.264 1373 985.747 1378.97 981.197 1378.49 980.273 1377.97 979.376 1377.4 978.507 1371.17 968.806 1360.54 962.965 1349.16 962.981L1336.87 962.981C1323.63 962.984 1311.62 970.852 1306.12 983.114 1305.69 984.072 1305.31 985.049 1304.97 986.045Z" fill="#E6E6E6" fill-rule="evenodd"/><path d="M1348.98 992.845C1348.26 992.929 1347.57 993.318 1346.98 993.973 1350 993.671 1353.01 993.004 1355.98 991.973Z" fill="#2F2E41" fill-rule="evenodd"/><path d="M1342.46 858.982C1304.63 858.985 1273.97 889.657 1273.97 927.489 1273.97 951.988 1287.06 974.621 1308.29 986.846 1311.76 988.856 1315.4 990.551 1319.18 991.913L1319.82 992.135C1327.09 994.689 1334.75 995.99 1342.46 995.981 1343.95 995.981 1345.45 995.932 1346.91 995.821 1350.31 995.611 1353.68 995.147 1357.01 994.428 1358.87 994.021 1360.7 993.54 1362.42 993.01 1362.84 992.887 1363.23 992.764 1363.67 992.628 1399.64 980.909 1419.3 942.247 1407.59 906.271 1398.4 878.074 1372.12 858.986 1342.46 858.982ZM1382.21 978.796C1376.3 983.356 1369.65 986.864 1362.54 989.164 1362.16 989.287 1361.77 989.411 1361.37 989.534 1359.73 990.039 1358.01 990.483 1356.23 990.865 1353.09 991.552 1349.89 991.997 1346.68 992.197 1345.29 992.295 1343.87 992.345 1342.46 992.345 1335.16 992.348 1327.92 991.119 1321.03 988.707L1320.42 988.498C1316.67 987.15 1313.05 985.448 1309.62 983.419 1278.78 965.258 1268.49 925.529 1286.65 894.681 1304.81 863.834 1344.54 853.549 1375.39 871.709 1406.23 889.87 1416.52 929.599 1398.36 960.447 1394.19 967.532 1388.7 973.759 1382.21 978.796Z" fill="#CCCCCC" fill-rule="evenodd"/><path d="M1534.91 926.982 1433.03 926.982C1428.58 926.982 1424.97 923.399 1424.97 918.982 1424.97 914.562 1428.58 910.982 1433.03 910.982L1534.91 910.982C1539.36 910.982 1542.97 914.562 1542.97 918.982 1542.97 923.399 1539.36 926.982 1534.91 926.982Z" fill="#E6E6E6" fill-rule="evenodd"/><path d="M1567.93 953.982 1433.02 953.982C1428.58 953.982 1424.97 950.4 1424.97 945.981 1424.97 941.563 1428.58 937.982 1433.02 937.982L1567.93 937.982C1572.37 937.982 1575.97 941.563 1575.97 945.981 1575.97 950.4 1572.37 953.982 1567.93 953.982Z" fill="#E6E6E6" fill-rule="evenodd"/><path d="M1534.94 1057.98 1282.01 1057.98C1277.57 1057.98 1273.97 1054.4 1273.97 1049.98 1273.97 1045.56 1277.57 1041.98 1282.01 1041.98L1534.94 1041.98C1539.38 1041.98 1542.97 1045.56 1542.97 1049.98 1542.97 1054.4 1539.38 1057.98 1534.94 1057.98Z" fill="#E6E6E6" fill-rule="evenodd"/><path d="M1567.94 1084.98 1282 1084.98C1277.57 1084.98 1273.97 1081.4 1273.97 1076.98 1273.97 1072.56 1277.57 1068.98 1282 1068.98L1567.94 1068.98C1572.38 1068.98 1575.97 1072.56 1575.97 1076.98 1575.97 1081.4 1572.38 1084.98 1567.94 1084.98Z" fill="#E6E6E6" fill-rule="evenodd"/><path d="M1753.89 989.611C1754.56 983.362 1751.26 977.357 1745.61 974.588L1469.13 839.5C1461.73 835.885 1452.8 838.945 1449.19 846.336L1449.18 846.347 1345.48 1058.45C1341.88 1065.84 1344.94 1074.76 1352.33 1078.38L1628.82 1213.47C1636.22 1217.07 1645.14 1214.01 1648.76 1206.63L1752.46 994.526C1753.22 992.983 1753.7 991.32 1753.89 989.611Z" fill="#FFFFFF" fill-rule="evenodd"/><path d="M1753.89 989.611C1754.56 983.362 1751.26 977.357 1745.61 974.588L1469.13 839.5C1461.73 835.885 1452.8 838.945 1449.19 846.336L1449.18 846.347 1345.48 1058.45C1341.88 1065.84 1344.94 1074.76 1352.33 1078.38L1628.82 1213.47C1636.22 1217.07 1645.14 1214.01 1648.76 1206.63L1752.46 994.526C1753.22 992.983 1753.7 991.32 1753.89 989.611ZM1647.18 1205.85C1643.99 1212.37 1636.11 1215.08 1629.59 1211.9L1353.1 1076.81C1346.58 1073.61 1343.88 1065.74 1347.06 1059.22L1450.76 847.117C1453.96 840.599 1461.83 837.896 1468.36 841.077L1744.84 976.164C1751.36 979.36 1754.06 987.229 1750.88 993.756Z" fill="#3F3D56" fill-rule="evenodd"/><path d="M1723.55 999.704 1651.19 1147.65C1650.18 1149.71 1647.7 1150.56 1645.64 1149.56L1645.64 1149.56 1394.3 1026.81C1394.12 1026.72 1393.95 1026.62 1393.79 1026.5 1392.08 1025.34 1391.49 1023.11 1392.39 1021.26L1464.76 873.309C1465.76 871.252 1468.25 870.398 1470.3 871.403L1470.3 871.403 1721.64 994.158C1723.7 995.162 1724.56 997.645 1723.55 999.701L1723.55 999.701Z" fill="#E6E6E6" fill-rule="evenodd"/><path d="M1540 955.5C1540 975.658 1523.66 992 1503.5 992 1483.34 992 1467 975.658 1467 955.5 1467 935.341 1483.34 919 1503.5 919 1523.66 919 1540 935.341 1540 955.5Z" fill="#6C63FF" fill-rule="evenodd"/><path d="M1555.97 1105.98 1395.55 1027.63C1395.35 1027.53 1395.15 1027.42 1394.97 1027.29L1535.08 933.018C1537.77 931.172 1541.45 931.857 1543.3 934.548 1543.91 935.432 1544.26 936.464 1544.33 937.534L1552.14 1050.54 1552.52 1055.94Z" fill="#3F3D56" fill-rule="evenodd"/><path d="M1556 1106 1502 1079.46 1547.33 1053.78 1550.59 1051.93 1552.22 1051 1552.59 1056.36 1556 1106Z" fill="#000000" fill-rule="evenodd" fill-opacity="0.2"/><path d="M1645.97 1149.98 1506.97 1082.27 1553.03 1056.39 1556.35 1054.53 1616.37 1020.8C1620.3 1018.59 1625.94 1021.08 1627.22 1025.31 1627.3 1025.6 1627.37 1025.89 1627.41 1026.19Z" fill="#3F3D56" fill-rule="evenodd"/><path d="M1710.54 1430.98 1102.63 1430.98C1080.18 1430.96 1062 1412.78 1061.97 1390.34L1061.97 1056.62C1062 1034.19 1080.18 1016.01 1102.63 1015.98L1177.16 1015.98C1187.27 1015.97 1197.03 1019.74 1204.5 1026.55L1285.33 1084.24C1290.6 1089.05 1297.49 1091.72 1304.63 1091.72L1714.32 1091.72C1736.77 1091.72 1754.97 1109.91 1754.97 1132.35 1754.97 1132.55 1754.97 1132.75 1754.97 1132.95L1751.19 1390.94C1750.78 1413.11 1732.73 1430.89 1710.54 1430.98Z" fill="#FFFFFF" fill-rule="evenodd"/><path d="M1411.14 1248.43 1409.52 1246.85C1408.82 1246.21 1408.79 1245.14 1409.44 1244.46 1409.47 1244.43 1409.49 1244.4 1409.52 1244.38L1423.71 1230.52C1424.37 1229.84 1425.46 1229.8 1426.16 1230.44 1426.16 1230.44 1426.16 1230.44 1426.16 1230.44 1426.19 1230.46 1426.22 1230.49 1426.24 1230.52L1440.44 1244.37C1441.13 1245.03 1441.15 1246.11 1440.48 1246.79L1440.44 1246.83 1438.82 1248.41C1438.14 1249.09 1437.03 1249.11 1436.33 1248.46L1436.29 1248.41 1427.9 1239.78 1427.9 1260.27C1427.9 1261.21 1427.13 1261.97 1426.17 1261.98 1426.17 1261.98 1426.17 1261.98 1426.17 1261.98L1426.15 1261.98 1423.82 1261.98C1422.84 1261.98 1422.06 1261.21 1422.06 1260.27L1422.06 1260.27 1422.06 1239.8 1413.67 1248.44C1412.99 1249.12 1411.88 1249.13 1411.18 1248.47Z" fill="#6C63FF" fill-rule="evenodd"/><path d="M1424.97 1217.7C1440.59 1217.7 1453.25 1230.36 1453.25 1245.98 1453.25 1261.6 1440.59 1274.26 1424.97 1274.26 1409.35 1274.26 1396.69 1261.6 1396.69 1245.98L1396.69 1245.98C1396.71 1230.37 1409.36 1217.72 1424.97 1217.7M1424.97 1213.98C1407.3 1213.98 1392.97 1228.31 1392.97 1245.98 1392.97 1263.65 1407.3 1277.98 1424.97 1277.98 1442.65 1277.98 1456.97 1263.65 1456.97 1245.98L1456.97 1245.98C1456.97 1228.31 1442.65 1213.98 1424.97 1213.98Z" fill="#3F3D56" fill-rule="evenodd"/><path d="M1710.54 1430.98 1102.63 1430.98C1080.18 1430.96 1062 1412.78 1061.97 1390.34L1061.97 1056.62C1062 1034.19 1080.18 1016.01 1102.63 1015.98L1177.16 1015.98C1187.27 1015.97 1197.03 1019.74 1204.5 1026.55L1285.33 1084.24C1290.6 1089.05 1297.49 1091.72 1304.63 1091.72L1714.32 1091.72C1736.77 1091.72 1754.97 1109.91 1754.97 1132.35 1754.97 1132.55 1754.97 1132.75 1754.97 1132.95L1751.19 1390.94C1750.78 1413.11 1732.73 1430.89 1710.54 1430.98ZM1102.63 1018.44C1081.54 1018.47 1064.46 1035.55 1064.44 1056.62L1064.44 1390.34C1064.46 1411.42 1081.54 1428.49 1102.63 1428.52L1710.54 1428.52C1731.38 1428.43 1748.34 1411.73 1748.73 1390.9L1752.51 1132.91C1752.81 1111.83 1735.97 1094.49 1714.88 1094.18 1714.69 1094.18 1714.5 1094.18 1714.32 1094.18L1304.63 1094.18C1296.9 1094.19 1289.45 1091.31 1283.73 1086.11L1202.9 1028.42C1195.87 1021.99 1186.69 1018.44 1177.16 1018.44Z" fill="#3F3D56" fill-rule="evenodd"/><path d="M973.024 948.964 673.837 948.964C663.952 948.953 655.942 940.962 655.93 931.103L655.93 700.826C655.942 690.966 663.952 682.976 673.837 682.964L973.024 682.964C982.909 682.976 990.919 690.966 990.931 700.826L990.931 931.103C990.919 940.962 982.909 948.953 973.024 948.964Z" fill="#FFFFFF" fill-rule="evenodd"/><path d="M972.69 949.964 674.172 949.964C663.55 949.952 654.943 941.338 654.931 930.711L654.931 700.218C654.943 689.589 663.55 680.976 674.172 680.964L972.69 680.964C983.312 680.976 991.919 689.589 991.931 700.218L991.931 930.711C991.919 941.338 983.312 949.952 972.69 949.964ZM674.172 684.265C665.371 684.275 658.239 691.411 658.229 700.218L658.229 930.711C658.239 939.517 665.371 946.653 674.172 946.663L972.69 946.663C981.491 946.653 988.623 939.517 988.633 930.711L988.633 700.218C988.623 691.411 981.491 684.275 972.69 684.265Z" fill="#E6E6E6" fill-rule="evenodd"/><path d="M869.457 757.963C862.419 757.958 855.786 761.333 851.542 767.08 844.048 763.78 835.359 767.322 832.134 774.991 831.341 776.878 830.931 778.909 830.93 780.963L891.931 780.963C891.931 768.261 881.869 757.963 869.457 757.963Z" fill="#E6E6E6" fill-rule="evenodd"/><path d="M772 810C772 829.882 755.882 846 736 846 716.118 846 700 829.882 700 810 700 790.118 716.118 774 736 774 755.882 774 772 790.118 772 810Z" fill="#6C63FF" fill-rule="evenodd"/><path d="M947.931 884.498C946.605 884.81 945.246 884.966 943.883 884.964L702.434 884.964C699.46 884.969 696.534 884.219 693.931 882.785L694.574 881.863 721.513 843.15 761.432 785.796 762.015 784.956 768.296 775.933C769.74 773.856 772.597 773.34 774.677 774.781 775.128 775.093 775.519 775.483 775.831 775.933L796.698 805.908 796.698 805.913 808.974 823.554 838.278 865.654 882.723 802.34C884.176 800.266 887.039 799.761 889.117 801.212 889.557 801.519 889.939 801.901 890.247 802.34L918.759 842.952 920.398 845.285Z" fill="#3F3D56" fill-rule="evenodd"/><path d="M821.299 795.964C812.646 795.957 804.49 800.067 799.273 807.063 790.059 803.045 779.375 807.356 775.41 816.693 774.435 818.99 773.932 821.464 773.931 823.964L848.931 823.964C848.931 808.5 836.56 795.964 821.3 795.964Z" fill="#CCCCCC" fill-rule="evenodd"/><path d="M943.765 885.964 702.097 885.964C692.073 885.973 683.939 877.858 683.931 867.839 683.931 867.828 683.931 867.817 683.931 867.807L683.931 730.121C683.942 720.098 692.069 711.975 702.097 711.964L943.765 711.964C953.793 711.975 961.92 720.098 961.931 730.121L961.931 867.807C961.943 877.823 953.828 885.953 943.807 885.964 943.792 885.964 943.779 885.964 943.765 885.964ZM702.097 713.064C692.677 713.075 685.042 720.705 685.032 730.121L685.032 867.807C685.023 877.218 692.649 884.854 702.064 884.864 702.076 884.864 702.086 884.864 702.097 884.864L943.765 884.864C953.179 884.875 960.819 877.256 960.83 867.846 960.83 867.833 960.83 867.82 960.83 867.807L960.83 730.121C960.819 720.705 953.186 713.075 943.765 713.064Z" fill="#3F3D56" fill-rule="evenodd"/><path d="M753.078 1271.96 454.784 1271.96C444.929 1271.95 436.942 1263.93 436.931 1254.04L436.931 1022.89C436.942 1013 444.929 1004.98 454.784 1004.96L753.078 1004.96C762.933 1004.98 770.92 1013 770.931 1022.89L770.931 1254.04C770.92 1263.93 762.933 1271.95 753.078 1271.96Z" fill="#FFFFFF" fill-rule="evenodd"/><path d="M752.69 1272.96 454.172 1272.96C443.55 1272.95 434.943 1264.34 434.931 1253.71L434.931 1023.22C434.943 1012.59 443.55 1003.98 454.172 1003.96L752.69 1003.96C763.312 1003.98 771.919 1012.59 771.931 1023.22L771.931 1253.71C771.919 1264.34 763.312 1272.95 752.69 1272.96ZM454.172 1007.26C445.371 1007.28 438.239 1014.41 438.229 1023.22L438.229 1253.71C438.239 1262.52 445.371 1269.65 454.172 1269.66L752.69 1269.66C761.491 1269.65 768.623 1262.52 768.633 1253.71L768.633 1023.22C768.623 1014.41 761.491 1007.28 752.69 1007.26Z" fill="#E6E6E6" fill-rule="evenodd"/><path d="M650.457 1080.96C643.419 1080.96 636.786 1084.33 632.542 1090.08 625.048 1086.78 616.359 1090.32 613.134 1097.99 612.341 1099.88 611.931 1101.91 611.931 1103.96L672.931 1103.96C672.931 1091.26 662.869 1080.96 650.457 1080.96Z" fill="#E6E6E6" fill-rule="evenodd"/><path d="M553 1133C553 1152.88 536.882 1169 517 1169 497.118 1169 481 1152.88 481 1133 481 1113.12 497.118 1097 517 1097 536.882 1097 553 1113.12 553 1133Z" fill="#6C63FF" fill-rule="evenodd"/><path d="M728.931 1207.5C727.605 1207.81 726.246 1207.97 724.883 1207.96L483.434 1207.96C480.46 1207.97 477.534 1207.22 474.931 1205.78L475.574 1204.86 502.513 1166.15 542.432 1108.8 543.015 1107.96 549.296 1098.93C550.74 1096.86 553.597 1096.34 555.677 1097.78 556.128 1098.09 556.519 1098.48 556.831 1098.93L577.698 1128.91 577.698 1128.91 589.974 1146.55 619.278 1188.65 663.723 1125.34C665.176 1123.27 668.039 1122.76 670.117 1124.21 670.557 1124.52 670.939 1124.9 671.247 1125.34L699.759 1165.95 701.398 1168.28Z" fill="#3F3D56" fill-rule="evenodd"/><path d="M602.3 1118.96C593.646 1118.96 585.491 1122.92 580.273 1129.67 571.059 1125.79 560.375 1129.95 556.41 1138.95 555.435 1141.17 554.932 1143.55 554.931 1145.97L629.931 1145.97C629.931 1131.05 617.56 1118.96 602.3 1118.96Z" fill="#CCCCCC" fill-rule="evenodd"/><path d="M724.765 1207.96 483.097 1207.96C473.073 1207.97 464.939 1199.86 464.931 1189.84 464.931 1189.83 464.931 1189.82 464.931 1189.81L464.931 1052.12C464.942 1042.1 473.069 1033.98 483.097 1033.96L724.765 1033.96C734.793 1033.98 742.919 1042.1 742.931 1052.12L742.931 1189.81C742.942 1199.82 734.828 1207.95 724.807 1207.96 724.792 1207.96 724.778 1207.96 724.765 1207.96ZM483.097 1035.06C473.677 1035.07 466.042 1042.71 466.032 1052.12L466.032 1189.81C466.023 1199.22 473.649 1206.85 483.064 1206.86 483.076 1206.86 483.086 1206.86 483.097 1206.86L724.765 1206.86C734.178 1206.87 741.819 1199.26 741.83 1189.85 741.83 1189.83 741.83 1189.82 741.83 1189.81L741.83 1052.12C741.819 1042.71 734.185 1035.07 724.765 1035.06Z" fill="#3F3D56" fill-rule="evenodd"/><path d="M964.078 1600.96 665.784 1600.96C655.929 1600.95 647.942 1592.96 647.931 1583.1L647.931 1352.83C647.942 1342.97 655.929 1334.98 665.784 1334.96L964.078 1334.96C973.933 1334.98 981.92 1342.97 981.931 1352.83L981.931 1583.1C981.92 1592.96 973.933 1600.95 964.078 1600.96Z" fill="#FFFFFF" fill-rule="evenodd"/><path d="M963.69 1601.96 665.172 1601.96C654.55 1601.95 645.943 1593.34 645.931 1582.71L645.931 1352.22C645.943 1341.59 654.55 1332.98 665.172 1332.96L963.69 1332.96C974.312 1332.98 982.919 1341.59 982.931 1352.22L982.931 1582.71C982.919 1593.34 974.312 1601.95 963.69 1601.96ZM665.172 1336.26C656.371 1336.28 649.239 1343.41 649.229 1352.22L649.229 1582.71C649.239 1591.52 656.371 1598.65 665.172 1598.66L963.69 1598.66C972.491 1598.65 979.623 1591.52 979.633 1582.71L979.633 1352.22C979.623 1343.41 972.491 1336.28 963.69 1336.26Z" fill="#E6E6E6" fill-rule="evenodd"/><path d="M861.457 1410.96C854.419 1410.96 847.786 1414.19 843.542 1419.69 836.048 1416.53 827.359 1419.92 824.134 1427.25 823.341 1429.06 822.931 1431 822.931 1432.97L883.931 1432.96C883.931 1420.81 873.869 1410.96 861.457 1410.96Z" fill="#E6E6E6" fill-rule="evenodd"/><path d="M764 1462C764 1481.88 747.883 1498 728 1498 708.118 1498 692 1481.88 692 1462 692 1442.12 708.118 1426 728 1426 747.883 1426 764 1442.12 764 1462Z" fill="#6C63FF" fill-rule="evenodd"/><path d="M939.931 1536.5C938.605 1536.81 937.246 1536.97 935.883 1536.96L694.434 1536.96C691.46 1536.97 688.534 1536.22 685.931 1534.78L686.574 1533.86 713.513 1495.15 753.432 1437.8 754.015 1436.96 760.296 1427.93C761.74 1425.86 764.597 1425.34 766.677 1426.78 767.128 1427.09 767.519 1427.48 767.831 1427.93L788.698 1457.91 788.698 1457.91 800.974 1475.55 830.278 1517.65 874.723 1454.34C876.176 1452.27 879.039 1451.76 881.117 1453.21 881.557 1453.52 881.939 1453.9 882.247 1454.34L910.759 1494.95 912.398 1497.28Z" fill="#3F3D56" fill-rule="evenodd"/><path d="M813.299 1447.96C804.646 1447.96 796.49 1452.07 791.273 1459.06 782.059 1455.04 771.375 1459.36 767.41 1468.69 766.435 1470.99 765.932 1473.46 765.931 1475.96L840.931 1475.96C840.931 1460.5 828.56 1447.96 813.3 1447.96Z" fill="#CCCCCC" fill-rule="evenodd"/><path d="M935.765 1537.96 694.097 1537.96C684.073 1537.97 675.94 1529.86 675.931 1519.84 675.931 1519.83 675.931 1519.82 675.931 1519.81L675.931 1382.12C675.942 1372.1 684.069 1363.98 694.097 1363.96L935.765 1363.96C945.793 1363.98 953.919 1372.1 953.931 1382.12L953.931 1519.81C953.943 1529.82 945.828 1537.95 935.807 1537.96 935.792 1537.96 935.778 1537.96 935.765 1537.96ZM694.097 1365.06C684.677 1365.07 677.042 1372.71 677.032 1382.12L677.032 1519.81C677.023 1529.22 684.649 1536.85 694.065 1536.86 694.076 1536.86 694.086 1536.86 694.097 1536.86L935.765 1536.86C945.178 1536.87 952.819 1529.26 952.83 1519.85 952.83 1519.83 952.83 1519.82 952.83 1519.81L952.83 1382.12C952.819 1372.71 945.185 1365.07 935.765 1365.06Z" fill="#3F3D56" fill-rule="evenodd"/><path d="M3602 877 4576 877 4576 1376 3602 1376Z" fill="#F2F2F2" fill-rule="evenodd"/><path d="M3635 902 4543 902 4543 1351 3635 1351Z" fill="#FFFFFF" fill-rule="evenodd"/><path d="M4429.9 1282.97 3768.04 1282.97C3766.9 1282.97 3765.97 1282.04 3765.97 1280.89L3765.97 963.043C3765.97 961.895 3766.9 960.966 3768.04 960.966 3769.18 960.966 3770.11 961.895 3770.11 963.043L3770.11 1278.82 4429.9 1278.82C4431.04 1278.82 4431.97 1279.74 4431.97 1280.89 4431.97 1282.04 4431.04 1282.97 4429.9 1282.97Z" fill="#3F3D56" fill-rule="evenodd"/><path d="M3898.86 1280.97 3839.07 1280.97C3835.7 1280.96 3832.97 1278.19 3832.97 1274.77L3832.97 1191.16C3832.97 1187.74 3835.7 1184.97 3839.07 1184.97L3898.86 1184.97C3902.23 1184.97 3904.96 1187.74 3904.97 1191.16L3904.97 1274.77C3904.96 1278.19 3902.23 1280.96 3898.86 1280.97Z" fill="#6C63FF" fill-rule="evenodd"/><path d="M4008.77 1280.97 3948.16 1280.97C3944.74 1280.96 3941.97 1278.21 3941.97 1274.82L3941.97 1113.11C3941.97 1109.72 3944.74 1106.97 3948.16 1106.97L4008.77 1106.97C4012.19 1106.97 4014.96 1109.72 4014.97 1113.11L4014.97 1274.82C4014.96 1278.21 4012.19 1280.96 4008.77 1280.97Z" fill="#6C63FF" fill-rule="evenodd"/><path d="M4118.78 1280.97 4058.16 1280.97C4054.74 1280.96 4051.97 1278.19 4051.97 1274.77L4051.97 1191.16C4051.97 1187.74 4054.74 1184.97 4058.16 1184.97L4118.78 1184.97C4122.19 1184.97 4124.96 1187.74 4124.97 1191.16L4124.97 1274.77C4124.96 1278.19 4122.19 1280.96 4118.78 1280.97Z" fill="#6C63FF" fill-rule="evenodd"/><path d="M4228.78 1280.96 4168.16 1280.96C4164.82 1281.04 4162.05 1278.4 4161.97 1275.07L4161.97 1080.86C4162.05 1077.53 4164.82 1074.9 4168.16 1074.97L4228.78 1074.97C4232.12 1074.9 4234.89 1077.53 4234.97 1080.86L4234.97 1275.07C4234.89 1278.4 4232.12 1281.04 4228.78 1280.96Z" fill="#6C63FF" fill-rule="evenodd"/><path d="M4338.77 1280.97 4278.16 1280.97C4274.74 1280.96 4271.97 1278.21 4271.97 1274.82L4271.97 1026.11C4271.97 1022.72 4274.74 1019.97 4278.16 1019.97L4338.77 1019.97C4342.19 1019.97 4344.96 1022.72 4344.97 1026.11L4344.97 1274.82C4344.96 1278.21 4342.19 1280.96 4338.77 1280.97Z" fill="#6C63FF" fill-rule="evenodd"/><path d="M3154 1243 3502 1243 3502 1509 3154 1509Z" fill="#F2F2F2" fill-rule="evenodd"/><path d="M3171 1256 3485 1256 3485 1496 3171 1496Z" fill="#FFFFFF" fill-rule="evenodd"/><path d="M3237 1322C3237 1329.18 3231.18 1335 3224 1335 3216.82 1335 3211 1329.18 3211 1322 3211 1314.82 3216.82 1309 3224 1309 3231.18 1309 3237 1314.82 3237 1322Z" fill="#3F3D56" fill-rule="evenodd"/><path d="M3432.96 1311.13C3437.84 1311.12 3441.8 1315.07 3441.8 1319.95 3441.81 1324.83 3437.86 1328.79 3432.99 1328.8 3432.98 1328.8 3432.97 1328.8 3432.96 1328.8L3295.98 1328.8C3291.1 1328.8 3287.15 1324.85 3287.15 1319.97 3287.15 1315.09 3291.1 1311.13 3295.98 1311.13L3432.96 1311.13M3432.96 1308.97 3295.98 1308.97C3289.91 1308.96 3284.97 1313.87 3284.97 1319.95 3284.96 1326.03 3289.87 1330.96 3295.95 1330.97 3295.96 1330.97 3295.97 1330.97 3295.98 1330.97L3432.96 1330.97C3439.03 1330.98 3443.96 1326.06 3443.97 1319.98 3443.98 1313.91 3439.06 1308.97 3432.99 1308.97 3432.98 1308.97 3432.97 1308.97 3432.96 1308.97Z" fill="#3F3D56" fill-rule="evenodd"/><path d="M3378.98 1330.97 3275.95 1330.97C3269.89 1330.97 3264.97 1326.04 3264.97 1319.97 3264.97 1313.89 3269.89 1308.97 3275.95 1308.97L3378.98 1308.97C3385.05 1308.97 3389.97 1313.89 3389.97 1319.97 3389.97 1326.04 3385.05 1330.97 3378.98 1330.97Z" fill="#6C63FF" fill-rule="evenodd"/><path d="M3237 1376C3237 1383.18 3231.18 1389 3224 1389 3216.82 1389 3211 1383.18 3211 1376 3211 1368.82 3216.82 1363 3224 1363 3231.18 1363 3237 1368.82 3237 1376Z" fill="#3F3D56" fill-rule="evenodd"/><path d="M3432.97 1366.13C3437.85 1366.12 3441.81 1370.07 3441.82 1374.95 3441.82 1379.83 3437.88 1383.79 3433 1383.8 3432.99 1383.8 3432.98 1383.8 3432.97 1383.8L3295.96 1383.8C3291.08 1383.8 3287.13 1379.85 3287.13 1374.97 3287.13 1370.09 3291.08 1366.13 3295.96 1366.13L3432.97 1366.13M3432.97 1363.97 3295.96 1363.97C3289.89 1363.97 3284.97 1368.89 3284.97 1374.97 3284.97 1381.04 3289.89 1385.97 3295.96 1385.97L3432.97 1385.97C3439.04 1385.97 3443.97 1381.04 3443.97 1374.97 3443.97 1368.89 3439.04 1363.97 3432.97 1363.97Z" fill="#3F3D56" fill-rule="evenodd"/><path d="M3417.97 1385.97 3275.96 1385.97C3269.89 1385.97 3264.97 1381.04 3264.97 1374.97 3264.97 1368.89 3269.89 1363.97 3275.96 1363.97L3417.97 1363.97C3424.04 1363.97 3428.97 1368.89 3428.97 1374.97 3428.97 1381.04 3424.04 1385.97 3417.97 1385.97Z" fill="#6C63FF" fill-rule="evenodd"/><path d="M3237 1430C3237 1437.18 3231.18 1443 3224 1443 3216.82 1443 3211 1437.18 3211 1430 3211 1422.82 3216.82 1417 3224 1417 3231.18 1417 3237 1422.82 3237 1430Z" fill="#3F3D56" fill-rule="evenodd"/><path d="M3432.97 1420.13C3437.85 1420.12 3441.81 1424.07 3441.82 1428.95 3441.82 1433.83 3437.88 1437.79 3433 1437.8 3432.99 1437.8 3432.98 1437.8 3432.97 1437.8L3295.96 1437.8C3291.08 1437.8 3287.13 1433.85 3287.13 1428.97 3287.13 1424.09 3291.08 1420.13 3295.96 1420.13L3432.97 1420.13M3432.97 1417.97 3295.96 1417.97C3289.89 1417.97 3284.97 1422.89 3284.97 1428.97 3284.97 1435.04 3289.89 1439.97 3295.96 1439.97L3432.97 1439.97C3439.04 1439.97 3443.97 1435.04 3443.97 1428.97 3443.97 1422.89 3439.04 1417.97 3432.97 1417.97Z" fill="#3F3D56" fill-rule="evenodd"/><path d="M3333.94 1439.97 3276.02 1439.97C3269.93 1439.98 3264.98 1435.06 3264.97 1428.98 3264.96 1422.91 3269.89 1417.98 3275.99 1417.97 3276 1417.97 3276.01 1417.97 3276.02 1417.97L3333.94 1417.97C3340.04 1417.98 3344.98 1422.91 3344.97 1428.98 3344.96 1435.05 3340.03 1439.96 3333.94 1439.97Z" fill="#6C63FF" fill-rule="evenodd"/><path d="M3175 744 3523 744 3523 1010 3175 1010Z" fill="#F2F2F2" fill-rule="evenodd"/><path d="M3192 757 3506 757 3506 997 3192 997Z" fill="#FFFFFF" fill-rule="evenodd"/><path d="M3354.85 934.966C3354.9 934.966 3354.94 934.966 3354.98 934.964 3400.94 932.549 3436.26 893.183 3433.85 847.038 3431.66 804.98 3398.67 771.113 3356.84 767.972 3356.32 767.929 3355.79 768.112 3355.4 768.472 3355.02 768.828 3354.79 769.328 3354.79 769.856L3352.97 933.034C3352.96 934.089 3353.8 934.954 3354.85 934.966Z" fill="#3F3D56" fill-rule="evenodd"/><path d="M3288.97 794.966C3289.63 794.973 3290.26 795.24 3290.72 795.702L3347.26 852.972C3347.72 853.434 3347.98 854.059 3347.97 854.708L3347.09 932.547C3347.08 933.222 3346.79 933.864 3346.29 934.319 3345.78 934.779 3345.11 935.012 3344.42 934.959 3297.73 931.5 3262.71 891.213 3266.21 844.975 3267.58 826.771 3274.91 809.505 3287.09 795.798 3287.55 795.287 3288.2 794.986 3288.88 794.966 3288.91 794.966 3288.94 794.966 3288.97 794.966Z" fill="#E6E6E6" fill-rule="evenodd"/><path d="M3346.52 766.966C3347.15 766.973 3347.75 767.223 3348.21 767.659 3348.7 768.131 3348.98 768.788 3348.97 769.472L3348.18 840.52C3348.16 841.885 3347.04 842.98 3345.68 842.966 3345.03 842.958 3344.4 842.689 3343.95 842.221L3294.67 791.664C3293.72 790.685 3293.74 789.115 3294.71 788.16 3294.74 788.131 3294.77 788.101 3294.8 788.072 3309.14 775.419 3327.3 767.981 3346.37 766.968 3346.42 766.966 3346.47 766.966 3346.52 766.966Z" fill="#6C63FF" fill-rule="evenodd"/><path d="M3320.97 969.134C3320.87 977.419 3314.08 984.059 3305.8 983.965 3297.51 983.874 3290.88 977.083 3290.97 968.798 3291.06 960.516 3297.85 953.876 3306.14 953.967 3314.41 954.07 3321.05 960.856 3320.97 969.134Z" fill="#6C63FF" fill-rule="evenodd"/><path d="M3363.97 969.134C3363.88 977.417 3357.08 984.057 3348.8 983.965 3340.52 983.872 3333.88 977.081 3333.97 968.798 3334.06 960.513 3340.85 953.873 3349.14 953.967 3357.42 954.068 3364.05 960.854 3363.97 969.134Z" fill="#3F3D56" fill-rule="evenodd"/><path d="M3406.97 970.134C3406.87 978.417 3400.08 985.059 3391.8 984.965 3383.52 984.872 3376.88 978.081 3376.97 969.798 3377.06 961.513 3383.85 954.874 3392.14 954.967 3400.42 955.068 3407.05 961.854 3406.97 970.134Z" fill="#E6E6E6" fill-rule="evenodd"/></g></svg>